<svg version="1.1" viewBox="0.0 0.0 489.26246719160105 398.65879265091866" fill="none" stroke="none" stroke-linecap="square" stroke-miterlimit="10" xmlns:xlink="http://www.w3.org/1999/xlink" xmlns="http://www.w3.org/2000/svg"><clipPath id="p.0"><path d="m0 0l489.26248 0l0 398.65878l-489.26248 0l0 -398.65878z" clip-rule="nonzero"/></clipPath><g clip-path="url(#p.0)"><path fill="#000000" fill-opacity="0.0" d="m0 0l489.26248 0l0 398.65878l-489.26248 0z" fill-rule="evenodd"/><path fill="#000000" fill-opacity="0.0" d="m7.0446196 77.009094l0 0c0 -33.694393 27.314701 -61.009094 61.00909 -61.009094l343.27316 0c16.180603 0 31.698517 6.427725 43.139923 17.869148c11.441437 11.441425 17.869171 26.959328 17.869171 43.139946l0 244.02905c0 33.694397 -27.314697 61.009094 -61.009094 61.009094l-343.27316 0l0 0c-33.69439 0 -61.00909 -27.314697 -61.00909 -61.009094z" fill-rule="evenodd"/><path stroke="#980000" stroke-width="2.0" stroke-linejoin="round" stroke-linecap="butt" d="m7.0446196 77.009094l0 0c0 -33.694393 27.314701 -61.009094 61.00909 -61.009094l343.27316 0c16.180603 0 31.698517 6.427725 43.139923 17.869148c11.441437 11.441425 17.869171 26.959328 17.869171 43.139946l0 244.02905c0 33.694397 -27.314697 61.009094 -61.009094 61.009094l-343.27316 0l0 0c-33.69439 0 -61.00909 -27.314697 -61.00909 -61.009094z" fill-rule="evenodd"/><path fill="#1c4587" d="m29.5958 258.15247l0 0c0 -6.6652374 5.403242 -12.068481 12.068483 -12.068481l397.0599 0c3.2007446 0 6.2704163 1.2714996 8.533691 3.5347748c2.2632751 2.2632904 3.53479 5.332947 3.53479 8.533707l0 48.27249c0 6.665222 -5.4032593 12.068481 -12.068481 12.068481l-397.0599 0c-6.6652412 0 -12.068483 -5.4032593 -12.068483 -12.068481z" fill-rule="evenodd"/><path fill="#ffffff" d="m199.67822 275.8887l0 -18.953125l5.828125 0q2.5 0 4.46875 1.125q1.984375 1.125 3.078125 3.203125q1.109375 2.078125 1.109375 4.71875l0 0.875q0 2.640625 -1.09375 4.703125q-1.078125 2.046875 -3.0625 3.1875q-1.96875 1.125 -4.453125 1.140625l-5.875 0zm3.90625 -15.78125l0 12.640625l1.890625 0q2.296875 0 3.5 -1.484375q1.21875 -1.5 1.234375 -4.296875l0 -1.0q0 -2.890625 -1.203125 -4.375q-1.1875 -1.484375 -3.5 -1.484375l-1.921875 0zm12.589584 8.609375q0 -2.09375 0.796875 -3.734375q0.8125 -1.640625 2.328125 -2.53125q1.515625 -0.90625 3.53125 -0.90625q2.84375 0 4.640625 1.75q1.8125 1.734375 2.015625 4.734375l0.03125 0.96875q0 3.234375 -1.8125 5.203125q-1.8125 1.953125 -4.859375 1.953125q-3.046875 0 -4.859375 -1.953125q-1.8125 -1.953125 -1.8125 -5.3125l0 -0.171875zm3.765625 0.28125q0 2.0 0.75 3.0625q0.75 1.0625 2.15625 1.0625q1.375 0 2.140625 -1.046875q0.765625 -1.0625 0.765625 -3.359375q0 -1.96875 -0.765625 -3.046875q-0.765625 -1.078125 -2.15625 -1.078125q-1.390625 0 -2.140625 1.078125q-0.75 1.0625 -0.75 3.328125zm17.74411 4.125q1.046875 0 1.6875 -0.578125q0.65625 -0.578125 0.6875 -1.53125l3.53125 0q-0.015625 1.4375 -0.78125 2.640625q-0.765625 1.1875 -2.109375 1.84375q-1.328125 0.65625 -2.953125 0.65625q-3.015625 0 -4.765625 -1.921875q-1.734375 -1.921875 -1.734375 -5.3125l0 -0.234375q0 -3.265625 1.734375 -5.203125q1.734375 -1.9375 4.75 -1.9375q2.640625 0 4.234375 1.5q1.59375 1.5 1.625 4.0l-3.53125 0q-0.03125 -1.09375 -0.6875 -1.765625q-0.640625 -0.6875 -1.703125 -0.6875q-1.3125 0 -1.984375 0.953125q-0.671875 0.953125 -0.671875 3.109375l0 0.390625q0 2.171875 0.65625 3.125q0.671875 0.953125 2.015625 0.953125zm13.166443 -2.890625l-1.359375 1.359375l0 4.296875l-3.765625 0l0 -19.999985l3.765625 0l0 11.07811l0.734375 -0.9375l3.609375 -4.21875l4.5156097 0l-5.0937347 5.859375l5.5312347 8.21875l-4.3281097 0l-3.609375 -5.65625zm15.338181 5.921875q-3.09375 0 -5.046875 -1.90625q-1.9375 -1.90625 -1.9375 -5.0625l0 -0.359375q0 -2.125 0.8125 -3.796875q0.828125 -1.671875 2.328125 -2.578125q1.5 -0.90625 3.4375 -0.90625q2.890625 0 4.546875 1.828125q1.65625 1.8125 1.65625 5.15625l0 1.546875l-8.96875 0q0.1875 1.375 1.09375 2.21875q0.921875 0.828125 2.328125 0.828125q2.171875 0 3.40625 -1.578125l1.84375 2.0625q-0.84375 1.203125 -2.296875 1.875q-1.4375 0.671875 -3.203125 0.671875zm-0.421875 -11.5625q-1.125 0 -1.828125 0.765625q-0.6875 0.75 -0.875 2.15625l5.21875 0l0 -0.3125q-0.015625 -1.25 -0.671875 -1.921875q-0.65625 -0.6875 -1.84375 -0.6875zm16.267792 0.734375q-0.765625 -0.09375 -1.359375 -0.09375q-2.125 0 -2.796875 1.4375l0 9.21875l-3.765625 0l0 -14.078125l3.5625 0l0.109375 1.671875q1.125 -1.9375 3.125 -1.9375q0.625 0 1.171875 0.171875l-0.046875 3.609375z" fill-rule="nonzero"/><path fill="#ffffff" d="m175.70155 298.84183q0 2.796875 -1.0 4.90625q-0.984375 2.109375 -2.828125 3.265625q-1.84375 1.140625 -4.21875 1.140625q-2.359375 0 -4.21875 -1.125q-1.84375 -1.140625 -2.859375 -3.234375q-1.015625 -2.109375 -1.015625 -4.84375l0 -0.9375q0 -2.796875 1.0 -4.921875q1.015625 -2.140625 2.84375 -3.28125q1.84375 -1.140625 4.21875 -1.140625q2.375 0 4.203125 1.140625q1.84375 1.140625 2.859375 3.28125q1.015625 2.125 1.015625 4.90625l0 0.84375zm-3.96875 -0.859375q0 -2.984375 -1.0625 -4.53125q-1.0625 -1.546875 -3.046875 -1.546875q-1.96875 0 -3.03125 1.53125q-1.0625 1.53125 -1.078125 4.484375l0 0.921875q0 2.90625 1.0625 4.515625q1.0625 1.59375 3.078125 1.59375q1.96875 0 3.015625 -1.546875q1.0625 -1.546875 1.0625 -4.5l0 -0.921875zm14.466766 -0.65625q-0.765625 -0.09375 -1.359375 -0.09375q-2.125 0 -2.796875 1.4375l0 9.21875l-3.765625 0l0 -14.078125l3.5625 0l0.109375 1.671875q1.125 -1.9375 3.125 -1.9375q0.625 0 1.171875 0.171875l-0.046875 3.609375zm7.4128723 7.796875q1.046875 0 1.6875 -0.578125q0.65625 -0.578125 0.6875 -1.53125l3.53125 0q-0.015625 1.4375 -0.78125 2.640625q-0.765625 1.1875 -2.109375 1.84375q-1.328125 0.65625 -2.953125 0.65625q-3.015625 0 -4.765625 -1.921875q-1.734375 -1.921875 -1.734375 -5.3125l0 -0.234375q0 -3.265625 1.734375 -5.203125q1.734375 -1.9375 4.75 -1.9375q2.640625 0 4.234375 1.5q1.59375 1.5 1.625 4.0l-3.53125 0q-0.03125 -1.09375 -0.6875 -1.765625q-0.640625 -0.6875 -1.703125 -0.6875q-1.3125 0 -1.984375 0.953125q-0.671875 0.953125 -0.671875 3.109375l0 0.390625q0 2.171875 0.65625 3.125q0.671875 0.953125 2.015625 0.953125zm11.713318 -9.78125q1.5 -1.796875 3.765625 -1.796875q4.578125 0 4.640625 5.328125l0 9.015625l-3.75 0l0 -8.921875q0 -1.203125 -0.53125 -1.78125q-0.515625 -0.578125 -1.71875 -0.578125q-1.65625 0 -2.40625 1.265625l0 10.015625l-3.75 0l0 -20.0l3.75 0l0 7.453125zm17.728546 12.8125q-3.09375 0 -5.046875 -1.90625q-1.9375 -1.90625 -1.9375 -5.0625l0 -0.359375q0 -2.125 0.8125 -3.796875q0.828125 -1.671875 2.328125 -2.578125q1.5 -0.90625 3.4375 -0.90625q2.890625 0 4.546875 1.828125q1.65625 1.8125 1.65625 5.15625l0 1.546875l-8.96875 0q0.1875 1.375 1.09375 2.21875q0.921875 0.828125 2.328125 0.828125q2.171875 0 3.40625 -1.578125l1.84375 2.0625q-0.84375 1.203125 -2.296875 1.875q-1.4375 0.671875 -3.203125 0.671875zm-0.421875 -11.5625q-1.125 0 -1.828125 0.765625q-0.6875 0.75 -0.875 2.15625l5.21875 0l0 -0.3125q-0.015625 -1.25 -0.671875 -1.921875q-0.65625 -0.6875 -1.84375 -0.6875zm15.986572 7.40625q0 -0.6875 -0.6875 -1.078125q-0.6875 -0.40625 -2.1875 -0.71875q-5.03125 -1.046875 -5.03125 -4.265625q0 -1.875 1.546875 -3.125q1.5625 -1.265625 4.078125 -1.265625q2.671875 0 4.28125 1.265625q1.609375 1.265625 1.609375 3.28125l-3.765625 0q0 -0.8125 -0.515625 -1.328125q-0.515625 -0.53125 -1.625 -0.53125q-0.953125 0 -1.46875 0.4375q-0.515625 0.421875 -0.515625 1.078125q0 0.625 0.578125 1.015625q0.59375 0.375 2.0 0.65625q1.40625 0.28125 2.375 0.640625q2.984375 1.09375 2.984375 3.78125q0 1.921875 -1.65625 3.125q-1.65625 1.1875 -4.265625 1.1875q-1.78125 0 -3.15625 -0.625q-1.359375 -0.640625 -2.140625 -1.734375q-0.78125 -1.109375 -0.78125 -2.390625l3.5625 0q0.046875 1.015625 0.734375 1.546875q0.703125 0.53125 1.859375 0.53125q1.078125 0 1.625 -0.40625q0.5625 -0.421875 0.5625 -1.078125zm10.580566 -13.65625l0 3.46875l2.40625 0l0 2.75l-2.40625 0l0 7.03125q0 0.78125 0.296875 1.125q0.296875 0.328125 1.140625 0.328125q0.625 0 1.109375 -0.078125l0 2.84375q-1.109375 0.34375 -2.28125 0.34375q-3.953125 0 -4.03125 -4.0l0 -7.59375l-2.0625 0l0 -2.75l2.0625 0l0 -3.46875l3.765625 0zm12.413132 6.984375q-0.765625 -0.09375 -1.359375 -0.09375q-2.125 0 -2.796875 1.4375l0 9.21875l-3.7656097 0l0 -14.078125l3.5624847 0l0.109375 1.671875q1.125 -1.9375 3.125 -1.9375q0.625 0 1.171875 0.171875l-0.046875 3.609375zm9.582153 10.5625q-0.265625 -0.5 -0.375 -1.265625q-1.375 1.53125 -3.5625 1.53125q-2.0625 0 -3.421875 -1.203125q-1.359375 -1.203125 -1.359375 -3.015625q0 -2.25 1.65625 -3.4375q1.65625 -1.203125 4.796875 -1.21875l1.734375 0l0 -0.796875q0 -0.984375 -0.515625 -1.5625q-0.5 -0.59375 -1.578125 -0.59375q-0.9375 0 -1.484375 0.46875q-0.546875 0.453125 -0.546875 1.234375l-3.75 0q0 -1.21875 0.75 -2.25q0.75 -1.046875 2.125 -1.640625q1.390625 -0.59375 3.109375 -0.59375q2.59375 0 4.125 1.3125q1.53125 1.296875 1.53125 3.671875l0 6.109375q0.015625 2.0 0.5625 3.03125l0 0.21875l-3.796875 0zm-3.109375 -2.609375q0.828125 0 1.53125 -0.375q0.703125 -0.375 1.046875 -1.0l0 -2.421875l-1.40625 0q-2.828125 0 -3.015625 1.953125l-0.015625 0.21875q0 0.703125 0.5 1.171875q0.5 0.453125 1.359375 0.453125zm13.744415 -14.9375l0 3.46875l2.40625 0l0 2.75l-2.40625 0l0 7.03125q0 0.78125 0.296875 1.125q0.296875 0.328125 1.140625 0.328125q0.625 0 1.109375 -0.078125l0 2.84375q-1.109375 0.34375 -2.28125 0.34375q-3.953125 0 -4.03125 -4.0l0 -7.59375l-2.0625 0l0 -2.75l2.0625 0l0 -3.46875l3.765625 0zm8.475647 17.546875l-3.78125 0l0 -14.078125l3.78125 0l0 14.078125zm-4.0 -17.734375q0 -0.84375 0.5625 -1.390625q0.5625 -0.546875 1.546875 -0.546875q0.953125 0 1.53125 0.546875q0.578125 0.546875 0.578125 1.390625q0 0.859375 -0.578125 1.40625q-0.578125 0.546875 -1.53125 0.546875q-0.953125 0 -1.53125 -0.546875q-0.578125 -0.546875 -0.578125 -1.40625zm6.5050354 10.5625q0 -2.09375 0.796875 -3.734375q0.8125 -1.640625 2.328125 -2.53125q1.515625 -0.90625 3.53125 -0.90625q2.84375 0 4.640625 1.75q1.8125 1.734375 2.015625 4.734375l0.03125 0.96875q0 3.234375 -1.8125 5.203125q-1.8125 1.953125 -4.859375 1.953125q-3.046875 0 -4.859375 -1.953125q-1.8125 -1.953125 -1.8125 -5.3125l0 -0.171875zm3.765625 0.28125q0 2.0 0.75 3.0625q0.75 1.0625 2.15625 1.0625q1.375 0 2.140625 -1.046875q0.765625 -1.0625 0.765625 -3.359375q0 -1.96875 -0.765625 -3.046875q-0.765625 -1.078125 -2.15625 -1.078125q-1.390625 0 -2.140625 1.078125q-0.75 1.0625 -0.75 3.328125zm15.353485 -7.1875l0.125 1.625q1.5 -1.890625 4.046875 -1.890625q2.234375 0 3.328125 1.3125q1.09375 1.3125 1.109375 3.9375l0 9.09375l-3.75 0l0 -9.0q0 -1.203125 -0.53125 -1.734375q-0.515625 -0.546875 -1.71875 -0.546875q-1.59375 0 -2.390625 1.34375l0 9.9375l-3.765625 0l0 -14.078125l3.546875 0z" fill-rule="nonzero"/><path fill="#4a86e8" d="m29.5958 189.14719l0 0c0 -5.5722504 4.5171947 -10.089447 10.089441 -10.089447l401.01797 0c2.6758728 0 5.242157 1.0629883 7.134308 2.9551392c1.8921204 1.8921356 2.9551392 4.45842 2.9551392 7.134308l0 40.356552c0 5.572235 -4.517212 10.089432 -10.089447 10.089432l-401.01797 0c-5.5722466 0 -10.089441 -4.5171967 -10.089441 -10.089432z" fill-rule="evenodd"/><path fill="#ffffff" d="m205.04855 213.95671q0 -1.109375 -0.78125 -1.703125q-0.78125 -0.59375 -2.8125 -1.25q-2.03125 -0.65625 -3.203125 -1.296875q-3.234375 -1.734375 -3.234375 -4.6875q0 -1.546875 0.859375 -2.75q0.875 -1.203125 2.484375 -1.875q1.625 -0.6875 3.640625 -0.6875q2.03125 0 3.609375 0.75q1.59375 0.734375 2.46875 2.078125q0.890625 1.328125 0.890625 3.03125l-3.90625 0q0 -1.296875 -0.828125 -2.015625q-0.8125 -0.71875 -2.296875 -0.71875q-1.4375 0 -2.234375 0.609375q-0.78125 0.59375 -0.78125 1.578125q0 0.921875 0.921875 1.546875q0.9375 0.625 2.75 1.171875q3.328125 1.015625 4.84375 2.5q1.53125 1.484375 1.53125 3.6875q0 2.46875 -1.859375 3.875q-1.859375 1.390625 -5.015625 1.390625q-2.1875 0 -3.984375 -0.796875q-1.796875 -0.8125 -2.75 -2.203125q-0.9375 -1.390625 -0.9375 -3.234375l3.921875 0q0 3.140625 3.75 3.140625q1.390625 0 2.171875 -0.5625q0.78125 -0.5625 0.78125 -1.578125zm10.824326 -12.578125l0 3.46875l2.40625 0l0 2.75l-2.40625 0l0 7.03125q0 0.78125 0.296875 1.125q0.296875 0.328125 1.140625 0.328125q0.625 0 1.109375 -0.078125l0 2.84375q-1.109375 0.34375 -2.28125 0.34375q-3.953125 0 -4.03125 -4.0l0 -7.59375l-2.0625 0l0 -2.75l2.0625 0l0 -3.46875l3.765625 0zm3.522522 10.375q0 -2.09375 0.796875 -3.734375q0.8125 -1.640625 2.328125 -2.53125q1.515625 -0.90625 3.53125 -0.90625q2.84375 0 4.640625 1.75q1.8125 1.734375 2.015625 4.734375l0.03125 0.96875q0 3.234375 -1.8125 5.203125q-1.8125 1.953125 -4.859375 1.953125q-3.046875 0 -4.859375 -1.953125q-1.8125 -1.953125 -1.8125 -5.3125l0 -0.171875zm3.765625 0.28125q0 2.0 0.75 3.0625q0.75 1.0625 2.15625 1.0625q1.375 0 2.140625 -1.046875q0.765625 -1.0625 0.765625 -3.359375q0 -1.96875 -0.765625 -3.046875q-0.765625 -1.078125 -2.15625 -1.078125q-1.390625 0 -2.140625 1.078125q-0.75 1.0625 -0.75 3.328125zm19.80661 -3.671875q-0.765625 -0.09375 -1.359375 -0.09375q-2.125 0 -2.796875 1.4375l0 9.21875l-3.765625 0l0 -14.078125l3.5625 0l0.109375 1.671875q1.125 -1.9375 3.125 -1.9375q0.625 0 1.171875 0.171875l-0.046875 3.609375zm9.582138 10.5625q-0.265625 -0.5 -0.375 -1.265625q-1.375 1.53125 -3.5625 1.53125q-2.0625 0 -3.421875 -1.203125q-1.359375 -1.203125 -1.359375 -3.015625q0 -2.25 1.65625 -3.4375q1.65625 -1.203125 4.796875 -1.21875l1.734375 0l0 -0.796875q0 -0.984375 -0.515625 -1.5625q-0.5 -0.59375 -1.578125 -0.59375q-0.9375 0 -1.484375 0.46875q-0.546875 0.453125 -0.546875 1.234375l-3.75 0q0 -1.21875 0.75 -2.25q0.75 -1.046875 2.125 -1.640625q1.390625 -0.59375 3.109375 -0.59375q2.59375 0 4.125 1.3125q1.53125 1.296875 1.53125 3.671875l0 6.109375q0.015625 2.0 0.5625 3.03125l0 0.21875l-3.796875 0zm-3.109375 -2.609375q0.828125 0 1.53125 -0.375q0.703125 -0.375 1.046875 -1.0l0 -2.421875l-1.40625 0q-2.828125 0 -3.015625 1.953125l-0.015625 0.21875q0 0.703125 0.5 1.171875q0.5 0.453125 1.359375 0.453125zm8.681915 -4.53125q0 -3.25 1.546875 -5.21875q1.546875 -1.984375 4.15625 -1.984375q2.328125 0 3.609375 1.59375l0.15625 -1.328125l3.40625 0l0 13.609375q0 1.84375 -0.84375 3.203125q-0.828125 1.375 -2.359375 2.09375q-1.515625 0.71875 -3.5625 0.71875q-1.546875 0 -3.015625 -0.625q-1.46875 -0.609375 -2.234375 -1.59375l1.671875 -2.28125q1.40625 1.5625 3.40625 1.5625q1.5 0 2.328125 -0.796875q0.84375 -0.796875 0.84375 -2.265625l0 -0.75q-1.3125 1.46875 -3.421875 1.46875q-2.546875 0 -4.125 -1.984375q-1.5625 -1.984375 -1.5625 -5.265625l0 -0.15625zm3.765625 0.265625q0 1.921875 0.765625 3.015625q0.78125 1.078125 2.109375 1.078125q1.71875 0 2.46875 -1.296875l0 -5.921875q-0.765625 -1.28125 -2.4375 -1.28125q-1.359375 0 -2.140625 1.109375q-0.765625 1.09375 -0.765625 3.296875zm18.481018 7.140625q-3.09375 0 -5.046875 -1.90625q-1.9375 -1.90625 -1.9375 -5.0625l0 -0.359375q0 -2.125 0.8125 -3.796875q0.828125 -1.671875 2.328125 -2.578125q1.5 -0.90625 3.4375 -0.90625q2.890625 0 4.546875 1.828125q1.65625 1.8125 1.65625 5.15625l0 1.546875l-8.96875 0q0.1875 1.375 1.09375 2.21875q0.921875 0.828125 2.328125 0.828125q2.171875 0 3.40625 -1.578125l1.84375 2.0625q-0.84375 1.203125 -2.296875 1.875q-1.4375 0.671875 -3.203125 0.671875zm-0.421875 -11.5625q-1.125 0 -1.828125 0.765625q-0.6875 0.75 -0.875 2.15625l5.21875 0l0 -0.3125q-0.015625 -1.25 -0.671875 -1.921875q-0.65625 -0.6875 -1.84375 -0.6875z" fill-rule="nonzero"/><path fill="#2ccee2" d="m29.5958 120.87946l0 0c0 -5.5722427 4.5171947 -10.089439 10.089441 -10.089439l114.529785 0c2.675888 0 5.2421722 1.0629959 7.134308 2.9551315c1.8921356 1.8921356 2.955124 4.4584274 2.955124 7.134308l0 40.35656c0 5.572235 -4.5171967 10.089432 -10.089432 10.089432l-114.529785 0c-5.5722466 0 -10.089441 -4.5171967 -10.089441 -10.089432z" fill-rule="evenodd"/><path fill="#ffffff" d="m49.504818 143.34775l-2.796875 0l0 6.25l-3.515625 0l0 -17.0625l6.328125 0q3.03125 0 4.671875 1.34375q1.640625 1.34375 1.640625 3.8125q0 1.75 -0.765625 2.921875q-0.75 1.15625 -2.28125 1.84375l3.6875 6.96875l0 0.171875l-3.765625 0l-3.203125 -6.25zm-2.796875 -2.84375l2.828125 0q1.328125 0 2.046875 -0.671875q0.734375 -0.671875 0.734375 -1.859375q0 -1.203125 -0.6875 -1.890625q-0.6875 -0.703125 -2.109375 -0.703125l-2.8125 0l0 5.125zm22.06641 1.703125l-6.750004 0l0 4.5625l7.921879 0l0 2.828125l-11.437504 0l0 -17.0625l11.406254 0l0 2.84375l-7.890629 0l0 4.0625l6.750004 0l0 2.765625zm16.734375 5.234375q-0.953125 1.140625 -2.6875 1.765625q-1.734375 0.625 -3.84375 0.625q-2.21875 0 -3.890625 -0.96875q-1.671875 -0.96875 -2.578125 -2.796875q-0.90625 -1.84375 -0.921875 -4.328125l0 -1.171875q0 -2.546875 0.859375 -4.40625q0.859375 -1.875 2.484375 -2.859375q1.625 -1.0 3.796875 -1.0q3.03125 0 4.734375 1.453125q1.71875 1.4375 2.046875 4.203125l-3.421875 0q-0.234375 -1.46875 -1.046875 -2.140625q-0.796875 -0.6875 -2.203125 -0.6875q-1.796875 0 -2.734375 1.359375q-0.9375 1.34375 -0.953125 4.0l0 1.09375q0 2.6875 1.015625 4.0625q1.03125 1.359375 3.0 1.359375q1.984375 0 2.828125 -0.84375l0 -2.9375l-3.203125 0l0 -2.59375l6.71875 0l0 6.8125zm6.5820312 2.15625l-3.515625 0l0 -17.0625l3.515625 0l0 17.0625zm12.105461 -4.484375q0 -0.984375 -0.703125 -1.515625q-0.703125 -0.546875 -2.53125 -1.125q-1.828125 -0.59375 -2.890625 -1.171875q-2.9062424 -1.578125 -2.9062424 -4.234375q0 -1.375 0.765625 -2.453125q0.7812424 -1.09375 2.2343674 -1.703125q1.46875 -0.609375 3.28125 -0.609375q1.828125 0 3.25 0.671875q1.4375 0.65625 2.234375 1.859375q0.796875 1.203125 0.796875 2.734375l-3.515625 0q0 -1.171875 -0.75 -1.8125q-0.734375 -0.65625 -2.0625 -0.65625q-1.296875 0 -2.015625 0.546875q-0.703125 0.546875 -0.703125 1.4375q0 0.828125 0.828125 1.390625q0.84375 0.5625 2.46875 1.0625q3.0 0.890625 4.375 2.234375q1.375 1.328125 1.375 3.328125q0 2.21875 -1.6875 3.484375q-1.671875 1.25 -4.5 1.25q-1.96875 0 -3.59375 -0.71875q-1.6093674 -0.71875 -2.4687424 -1.96875q-0.84375 -1.265625 -0.84375 -2.921875l3.5312424 0q0 2.828125 3.375 2.828125q1.25 0 1.953125 -0.5q0.703125 -0.515625 0.703125 -1.4375zm18.753906 -9.734375l-5.234375 0l0 14.21875l-3.515625 0l0 -14.21875l-5.15625 0l0 -2.84375l13.90625 0l0 2.84375zm12.269539 6.828125l-6.75 0l0 4.5625l7.921875 0l0 2.828125l-11.437508 0l0 -17.0625l11.406258 0l0 2.84375l-7.890625 0l0 4.0625l6.75 0l0 2.765625zm9.546875 1.140625l-2.796875 0l0 6.25l-3.515625 0l0 -17.0625l6.328125 0q3.03125 0 4.671875 1.34375q1.640625 1.34375 1.640625 3.8125q0 1.75 -0.765625 2.921875q-0.75 1.15625 -2.28125 1.84375l3.6875 6.96875l0 0.171875l-3.765625 0l-3.203125 -6.25zm-2.796875 -2.84375l2.828125 0q1.328125 0 2.046875 -0.671875q0.734375 -0.671875 0.734375 -1.859375q0 -1.203125 -0.6875 -1.890625q-0.6875 -0.703125 -2.109375 -0.703125l-2.8125 0l0 5.125z" fill-rule="nonzero"/><path fill="#2ccee2" d="m172.83989 120.87946l0 0c0 -5.5722427 4.5171967 -10.089439 10.089447 -10.089439l114.52977 0c2.6759033 0 5.2421875 1.0629959 7.134308 2.9551315c1.8921509 1.8921356 2.9551392 4.4584274 2.9551392 7.134308l0 40.35656c0 5.572235 -4.5171814 10.089432 -10.089447 10.089432l-114.52977 0c-5.5722504 0 -10.089447 -4.5171967 -10.089447 -10.089432z" fill-rule="evenodd"/><path fill="#ffffff" d="m224.57118 143.91025q-0.203125 2.75 -2.046875 4.34375q-1.828125 1.578125 -4.828125 1.578125q-3.28125 0 -5.15625 -2.203125q-1.875 -2.21875 -1.875 -6.078125l0 -1.03125q0 -2.46875 0.859375 -4.34375q0.875 -1.875 2.484375 -2.875q1.609375 -1.0 3.734375 -1.0q2.953125 0 4.75 1.578125q1.8125 1.578125 2.09375 4.4375l-3.515625 0q-0.125 -1.640625 -0.921875 -2.390625q-0.78125 -0.75 -2.40625 -0.75q-1.75 0 -2.625 1.265625q-0.875 1.265625 -0.890625 3.90625l0 1.296875q0 2.765625 0.828125 4.046875q0.84375 1.265625 2.640625 1.265625q1.640625 0 2.4375 -0.734375q0.796875 -0.75 0.921875 -2.3125l3.515625 0zm16.328125 -2.453125q0 2.515625 -0.890625 4.421875q-0.890625 1.890625 -2.5625 2.921875q-1.65625 1.03125 -3.796875 1.03125q-2.125 0 -3.796875 -1.015625q-1.65625 -1.03125 -2.578125 -2.921875q-0.90625 -1.890625 -0.90625 -4.34375l0 -0.84375q0 -2.53125 0.90625 -4.4375q0.90625 -1.921875 2.5625 -2.9375q1.65625 -1.03125 3.78125 -1.03125q2.140625 0 3.796875 1.03125q1.65625 1.015625 2.5625 2.9375q0.921875 1.90625 0.921875 4.421875l0 0.765625zm-3.5625 -0.78125q0 -2.6875 -0.96875 -4.078125q-0.953125 -1.390625 -2.734375 -1.390625q-1.78125 0 -2.75 1.375q-0.953125 1.375 -0.953125 4.03125l0 0.84375q0 2.609375 0.953125 4.046875q0.96875 1.4375 2.765625 1.4375q1.765625 0 2.71875 -1.375q0.953125 -1.390625 0.96875 -4.0625l0 -0.828125zm12.4296875 2.671875l-2.796875 0l0 6.25l-3.515625 0l0 -17.0625l6.328125 0q3.03125 0 4.671875 1.34375q1.6406097 1.34375 1.6406097 3.8125q0 1.75 -0.76560974 2.921875q-0.75 1.15625 -2.28125 1.84375l3.6874847 6.96875l0 0.171875l-3.7656097 0l-3.203125 -6.25zm-2.796875 -2.84375l2.828125 0q1.328125 0 2.046875 -0.671875q0.734375 -0.671875 0.734375 -1.859375q0 -1.203125 -0.6875 -1.890625q-0.6875 -0.703125 -2.109375 -0.703125l-2.8125 0l0 5.125zm22.066391 1.703125l-6.75 0l0 4.5625l7.921875 0l0 2.828125l-11.4375 0l0 -17.0625l11.40625 0l0 2.84375l-7.890625 0l0 4.0625l6.75 0l0 2.765625z" fill-rule="nonzero"/><path fill="#2ccee2" d="m316.08398 120.87946l0 0c0 -5.5722427 4.517212 -10.089439 10.089447 -10.089439l114.529785 0c2.6758728 0 5.242157 1.0629959 7.134308 2.9551315c1.8921204 1.8921356 2.9551392 4.4584274 2.9551392 7.134308l0 40.35656c0 5.572235 -4.517212 10.089432 -10.089447 10.089432l-114.529785 0c-5.572235 0 -10.089447 -4.5171967 -10.089447 -10.089432z" fill-rule="evenodd"/><path fill="#ffffff" d="m373.34848 144.67587l2.296875 -12.140625l3.5 0l-3.78125 17.0625l-3.53125 0l-2.78125 -11.421875l-2.78125 11.421875l-3.53125 0l-3.796875 -17.0625l3.515625 0l2.296875 12.109375l2.8125 -12.109375l2.984375 0l2.796875 12.140625zm17.972656 -2.46875l-6.75 0l0 4.5625l7.921875 0l0 2.828125l-11.4375 0l0 -17.0625l11.40625 0l0 2.84375l-7.890625 0l0 4.0625l6.75 0l0 2.765625zm3.234375 7.390625l0 -17.0625l5.96875 0q3.109375 0 4.703125 1.1875q1.609375 1.1875 1.609375 3.484375q0 1.25 -0.640625 2.21875q-0.640625 0.953125 -1.796875 1.390625q1.3125 0.328125 2.0625 1.328125q0.765625 1.0 0.765625 2.4375q0 2.453125 -1.578125 3.71875q-1.5625 1.265625 -4.46875 1.296875l-6.625 0zm3.515625 -7.4375l0 4.609375l3.0 0q1.25 0 1.9375 -0.59375q0.703125 -0.59375 0.703125 -1.625q0 -2.34375 -2.421875 -2.390625l-3.21875 0zm0 -2.484375l2.59375 0q2.65625 -0.046875 2.65625 -2.109375q0 -1.171875 -0.671875 -1.671875q-0.671875 -0.515625 -2.125 -0.515625l-2.453125 0l0 4.296875z" fill-rule="nonzero"/><path fill="#ff9900" d="m29.5958 51.916214l0 0c0 -5.5722466 4.5171947 -10.089443 10.089441 -10.089443l173.71088 0c2.675888 0 5.2421875 1.0629921 7.134323 2.9551277c1.8921356 1.8921394 2.955124 4.4584274 2.955124 7.1343155l0 40.356552c0 5.5722427 -4.5171967 10.089439 -10.089447 10.089439l-173.71088 0c-5.5722466 0 -10.089441 -4.5171967 -10.089441 -10.089439z" fill-rule="evenodd"/><path fill="#ffffff" d="m101.9624 81.69449l0 -18.953125l5.828125 0q2.5 0 4.46875 1.125q1.984375 1.125 3.078125 3.203125q1.109375 2.078125 1.109375 4.71875l0 0.875q0 2.640625 -1.09375 4.703125q-1.078125 2.046875 -3.0625 3.1875q-1.96875 1.125 -4.453125 1.140625l-5.875 0zm3.90625 -15.78125l0 12.640625l1.890625 0q2.296875 0 3.5 -1.484375q1.21875 -1.5 1.234375 -4.296875l0 -1.0q0 -2.890625 -1.203125 -4.375q-1.1875 -1.484375 -3.5 -1.484375l-1.921875 0zm28.839584 15.78125l-3.90625 0l-7.609375 -12.46875l0 12.46875l-3.90625 0l0 -18.953125l3.90625 0l7.625 12.5l0 -12.5l3.890625 0l0 18.953125zm13.22702 -4.96875q0 -1.109375 -0.78125 -1.703125q-0.78125 -0.59375 -2.8125 -1.25q-2.03125 -0.65625 -3.203125 -1.296875q-3.234375 -1.734375 -3.234375 -4.6875q0 -1.546875 0.859375 -2.75q0.875 -1.203125 2.484375 -1.875q1.625 -0.6875 3.640625 -0.6875q2.03125 0 3.609375 0.75q1.59375 0.734375 2.46875 2.078125q0.890625 1.328125 0.890625 3.03125l-3.90625 0q0 -1.296875 -0.828125 -2.015625q-0.8125 -0.71875 -2.296875 -0.71875q-1.4375 0 -2.234375 0.609375q-0.78125 0.59375 -0.78125 1.578125q0 0.921875 0.921875 1.546875q0.9375 0.625 2.75 1.171875q3.328125 1.015625 4.84375 2.5q1.53125 1.484375 1.53125 3.6875q0 2.46875 -1.859375 3.875q-1.859375 1.390625 -5.015625 1.390625q-2.1875 0 -3.984375 -0.796875q-1.796875 -0.8125 -2.75 -2.203125q-0.9375 -1.390625 -0.9375 -3.234375l3.921875 0q0 3.140625 3.75 3.140625q1.390625 0 2.171875 -0.5625q0.78125 -0.5625 0.78125 -1.578125z" fill-rule="nonzero"/><path fill="#c91313" d="m240.40158 51.916214l0 0c0 -5.5722466 4.5171967 -10.089443 10.089432 -10.089443l184.01009 0c2.6759033 0 5.2421875 1.0629921 7.1343384 2.9551277c1.8921204 1.8921394 2.9551086 4.4584274 2.9551086 7.1343155l0 40.356552c0 5.5722427 -4.5171814 10.089439 -10.089447 10.089439l-184.01009 0c-5.572235 0 -10.089432 -4.5171967 -10.089432 -10.089439z" fill-rule="evenodd"/><path fill="#ffffff" d="m293.80075 66.13448l-3.515625 0l0 -7.312496l-6.84375 0l0 7.312496l-3.515625 0l0 -17.062496l3.515625 0l0 6.90625l6.84375 0l0 -6.90625l3.515625 0l0 17.062496zm15.5859375 -14.218746l-5.234375 0l0 14.218746l-3.515625 0l0 -14.218746l-5.15625 0l0 -2.84375l13.90625 0l0 2.84375zm15.035156 0l-5.234375 0l0 14.218746l-3.515625 0l0 -14.218746l-5.15625 0l0 -2.84375l13.90625 0l0 2.84375zm5.5195312 8.203125l0 6.015621l-3.515625 0l0 -17.062496l6.65625 0q1.921875 0 3.375 0.703125q1.453125 0.703125 2.234375 2.0q0.796875 1.296875 0.796875 2.9375q0 2.515625 -1.71875 3.96875q-1.71875 1.4375 -4.75 1.4375l-3.078125 0zm0 -2.84375l3.140625 0q1.390625 0 2.125 -0.65625q0.734375 -0.65625 0.734375 -1.875q0 -1.25 -0.75 -2.015625q-0.734375 -0.78125 -2.03125 -0.8125l-3.21875 0l0 5.359375zm20.808594 4.375q0 -0.984375 -0.703125 -1.515625q-0.703125 -0.546875 -2.53125 -1.125q-1.828125 -0.59375 -2.890625 -1.171875q-2.90625 -1.578125 -2.90625 -4.234375q0 -1.375 0.765625 -2.453125q0.78125 -1.09375 2.234375 -1.703125q1.46875 -0.609375 3.28125 -0.609375q1.828125 0 3.25 0.671875q1.4375 0.65625 2.234375 1.859375q0.796875 1.203125 0.796875 2.734375l-3.515625 0q0 -1.171875 -0.75 -1.8125q-0.734375 -0.65625 -2.0625 -0.65625q-1.296875 0 -2.015625 0.546875q-0.703125 0.546875 -0.703125 1.4375q0 0.828125 0.828125 1.390625q0.84375 0.5625 2.46875 1.0625q3.0 0.890625 4.375 2.234375q1.375 1.328125 1.375 3.328125q0 2.21875 -1.6875 3.4843712q-1.671875 1.25 -4.5 1.25q-1.96875 0 -3.59375 -0.71875q-1.609375 -0.71875 -2.46875 -1.9687462q-0.84375 -1.265625 -0.84375 -2.921875l3.53125 0q0 2.828125 3.375 2.828125q1.25 0 1.953125 -0.5q0.703125 -0.515625 0.703125 -1.4375zm6.7539062 5.953121l-2.53125 0l6.28125 -18.531246l2.53125 0l-6.28125 18.531246zm16.964844 -5.953121q0 -0.984375 -0.703125 -1.515625q-0.703125 -0.546875 -2.53125 -1.125q-1.828125 -0.59375 -2.890625 -1.171875q-2.90625 -1.578125 -2.90625 -4.234375q0 -1.375 0.765625 -2.453125q0.78125 -1.09375 2.234375 -1.703125q1.46875 -0.609375 3.28125 -0.609375q1.828125 0 3.25 0.671875q1.4375 0.65625 2.234375 1.859375q0.796875 1.203125 0.796875 2.734375l-3.515625 0q0 -1.171875 -0.75 -1.8125q-0.734375 -0.65625 -2.0625 -0.65625q-1.296875 0 -2.015625 0.546875q-0.703125 0.546875 -0.703125 1.4375q0 0.828125 0.828125 1.390625q0.84375 0.5625 2.46875 1.0625q3.0 0.890625 4.375 2.234375q1.375 1.328125 1.375 3.328125q0 2.21875 -1.6875 3.4843712q-1.671875 1.25 -4.5 1.25q-1.96875 0 -3.59375 -0.71875q-1.609375 -0.71875 -2.46875 -1.9687462q-0.84375 -1.265625 -0.84375 -2.921875l3.53125 0q0 2.828125 3.375 2.828125q1.25 0 1.953125 -0.5q0.703125 -0.515625 0.703125 -1.4375zm14.753906 0q0 -0.984375 -0.703125 -1.515625q-0.703125 -0.546875 -2.53125 -1.125q-1.828125 -0.59375 -2.890625 -1.171875q-2.90625 -1.578125 -2.90625 -4.234375q0 -1.375 0.765625 -2.453125q0.78125 -1.09375 2.234375 -1.703125q1.46875 -0.609375 3.28125 -0.609375q1.828125 0 3.25 0.671875q1.4375 0.65625 2.234375 1.859375q0.796875 1.203125 0.796875 2.734375l-3.515625 0q0 -1.171875 -0.75 -1.8125q-0.734375 -0.65625 -2.0625 -0.65625q-1.296875 0 -2.015625 0.546875q-0.703125 0.546875 -0.703125 1.4375q0 0.828125 0.828125 1.390625q0.84375 0.5625 2.46875 1.0625q3.0 0.890625 4.375 2.234375q1.375 1.328125 1.375 3.328125q0 2.21875 -1.6875 3.4843712q-1.671875 1.25 -4.5 1.25q-1.96875 0 -3.59375 -0.71875q-1.609375 -0.71875 -2.46875 -1.9687462q-0.84375 -1.265625 -0.84375 -2.921875l3.53125 0q0 2.828125 3.375 2.828125q1.25 0 1.953125 -0.5q0.703125 -0.515625 0.703125 -1.4375zm9.425781 1.65625l7.453125 0l0 2.8281212l-10.96875 0l0 -17.062496l3.515625 0l0 14.234375z" fill-rule="nonzero"/><path fill="#ffffff" d="m291.63864 80.91573l-5.234375 0l0 14.21875l-3.515625 0l0 -14.21875l-5.15625 0l0 -2.84375l13.90625 0l0 2.84375zm6.5703125 14.453125q-2.796875 0 -4.546875 -1.703125q-1.75 -1.71875 -1.75 -4.5625l0 -0.328125q0 -1.921875 0.734375 -3.421875q0.75 -1.5 2.09375 -2.3125q1.359375 -0.828125 3.09375 -0.828125q2.59375 0 4.09375 1.640625q1.5 1.640625 1.5 4.65625l0 1.390625l-8.078125 0q0.15625 1.234375 0.984375 1.984375q0.828125 0.75 2.09375 0.75q1.953125 0 3.0625 -1.421875l1.65625 1.875q-0.75 1.078125 -2.0625 1.6875q-1.296875 0.59375 -2.875 0.59375zm-0.390625 -10.40625q-1.0 0 -1.640625 0.6875q-0.625 0.671875 -0.796875 1.9375l4.71875 0l0 -0.265625q-0.03125 -1.125 -0.625 -1.734375q-0.578125 -0.625 -1.65625 -0.625zm14.644531 0.671875q-0.6875 -0.09375 -1.21875 -0.09375q-1.921875 0 -2.515625 1.296875l0 8.296875l-3.390625 0l0 -12.6875l3.203125 0l0.09375 1.515625q1.015625 -1.75 2.828125 -1.75q0.5625 0 1.046875 0.15625l-0.046875 3.265625zm4.8164062 -3.1875l0.09375 1.421875q1.359375 -1.65625 3.65625 -1.65625q2.4375 0 3.359375 1.9375q1.328125 -1.9375 3.8125 -1.9375q2.0625 0 3.0625 1.203125q1.015625 1.203125 1.015625 3.625l0 8.09375l-3.40625 0l0 -8.09375q0 -1.078125 -0.421875 -1.5625q-0.421875 -0.5 -1.484375 -0.5q-1.53125 0 -2.109375 1.453125l0.015625 8.703125l-3.390625 0l0 -8.078125q0 -1.09375 -0.4375 -1.578125q-0.4375 -0.5 -1.46875 -0.5q-1.453125 0 -2.09375 1.1875l0 8.96875l-3.390625 0l0 -12.6875l3.1875 0zm21.167969 12.6875l-3.390625 0l0 -12.6875l3.390625 0l0 12.6875zm-3.59375 -15.96875q0 -0.75 0.5 -1.234375q0.515625 -0.5 1.390625 -0.5q0.875 0 1.390625 0.5q0.515625 0.484375 0.515625 1.234375q0 0.78125 -0.53125 1.28125q-0.515625 0.484375 -1.375 0.484375q-0.84375 0 -1.375 -0.484375q-0.515625 -0.5 -0.515625 -1.28125zm9.503906 3.28125l0.109375 1.46875q1.359375 -1.703125 3.640625 -1.703125q2.015625 0 3.0 1.1875q0.984375 1.1875 1.0 3.546875l0 8.1875l-3.375 0l0 -8.109375q0 -1.078125 -0.46875 -1.5625q-0.46875 -0.484375 -1.5625 -0.484375q-1.4375 0 -2.140625 1.21875l0 8.9375l-3.390625 0l0 -12.6875l3.1875 0zm17.675781 12.6875q-0.234375 -0.453125 -0.34375 -1.140625q-1.234375 1.375 -3.203125 1.375q-1.859375 0 -3.09375 -1.078125q-1.21875 -1.078125 -1.21875 -2.71875q0 -2.015625 1.484375 -3.09375q1.5 -1.078125 4.328125 -1.09375l1.5625 0l0 -0.71875q0 -0.890625 -0.453125 -1.40625q-0.453125 -0.53125 -1.421875 -0.53125q-0.859375 0 -1.34375 0.40625q-0.484375 0.40625 -0.484375 1.125l-3.390625 0q0 -1.09375 0.671875 -2.03125q0.6875 -0.9375 1.921875 -1.46875q1.25 -0.546875 2.796875 -0.546875q2.34375 0 3.71875 1.1875q1.375 1.171875 1.375 3.3125l0 5.484375q0.015625 1.8125 0.515625 2.734375l0 0.203125l-3.421875 0zm-2.8125 -2.359375q0.75 0 1.375 -0.328125q0.640625 -0.34375 0.953125 -0.90625l0 -2.171875l-1.265625 0q-2.546875 0 -2.703125 1.75l-0.015625 0.203125q0 0.640625 0.4375 1.046875q0.453125 0.40625 1.21875 0.40625zm12.3828125 -13.4375l0 3.109375l2.171875 0l0 2.484375l-2.171875 0l0 6.328125q0 0.703125 0.265625 1.015625q0.265625 0.296875 1.03125 0.296875q0.5625 0 1.0 -0.078125l0 2.5625q-1.0 0.3125 -2.046875 0.3125q-3.5625 0 -3.640625 -3.59375l0 -6.84375l-1.84375 0l0 -2.484375l1.84375 0l0 -3.109375l3.390625 0zm7.625 15.796875l-3.390625 0l0 -12.6875l3.390625 0l0 12.6875zm-3.59375 -15.96875q0 -0.75 0.5 -1.234375q0.515625 -0.5 1.390625 -0.5q0.875 0 1.390625 0.5q0.515625 0.484375 0.515625 1.234375q0 0.78125 -0.53125 1.28125q-0.515625 0.484375 -1.375 0.484375q-0.84375 0 -1.375 -0.484375q-0.515625 -0.5 -0.515625 -1.28125zm5.8632812 9.515625q0 -1.890625 0.71875 -3.359375q0.734375 -1.484375 2.09375 -2.296875q1.359375 -0.8125 3.171875 -0.8125q2.5625 0 4.1875 1.578125q1.625 1.5625 1.8125 4.265625l0.015625 0.859375q0 2.921875 -1.625 4.6875q-1.625 1.765625 -4.375 1.765625q-2.734375 0 -4.375 -1.75q-1.625 -1.765625 -1.625 -4.796875l0 -0.140625zm3.375 0.234375q0 1.8125 0.671875 2.765625q0.6875 0.953125 1.953125 0.953125q1.234375 0 1.921875 -0.9375q0.703125 -0.953125 0.703125 -3.015625q0 -1.78125 -0.703125 -2.75q-0.6875 -0.96875 -1.9375 -0.96875q-1.25 0 -1.9375 0.96875q-0.671875 0.96875 -0.671875 2.984375zm13.8359375 -6.46875l0.109375 1.46875q1.359375 -1.703125 3.640625 -1.703125q2.015625 0 3.0 1.1875q0.984375 1.1875 1.0 3.546875l0 8.1875l-3.375 0l0 -8.109375q0 -1.078125 -0.46875 -1.5625q-0.46875 -0.484375 -1.5625 -0.484375q-1.4375 0 -2.140625 1.21875l0 8.9375l-3.390625 0l0 -12.6875l3.1875 0z" fill-rule="nonzero"/><path fill="#000000" fill-opacity="0.0" d="m103.13911 325.71652l288.72443 0l0 49.826782l-288.72443 0z" fill-rule="evenodd"/><path fill="#980000" d="m220.29819 359.7959l5.15625 -17.109375l5.21875 0l-7.921875 22.75l-4.890625 0l-7.890625 -22.75l5.203125 0l5.125 17.109375zm18.640625 -17.109375l5.84375 16.5l5.8125 -16.5l6.15625 0l0 22.75l-4.703125 0l0 -6.21875l0.46875 -10.734375l-6.140625 16.953125l-3.21875 0l-6.125 -16.9375l0.46875 10.71875l0 6.21875l-4.6875 0l0 -22.75l6.125 0zm40.359375 22.75l-4.515625 0l0 -17.40625l-5.390625 1.671875l0 -3.671875l9.421875 -3.375l0.484375 0l0 22.78125z" fill-rule="nonzero"/></g></svg>