<svg version="1.1" viewBox="0.0 0.0 618.8556430446195 538.6167979002624" fill="none" stroke="none" stroke-linecap="square" stroke-miterlimit="10" xmlns:xlink="http://www.w3.org/1999/xlink" xmlns="http://www.w3.org/2000/svg"><clipPath id="p.0"><path d="m0 0l618.85565 0l0 538.6168l-618.85565 0l0 -538.6168z" clip-rule="nonzero"/></clipPath><g clip-path="url(#p.0)"><path fill="#000000" fill-opacity="0.0" d="m0 0l618.85565 0l0 538.6168l-618.85565 0z" fill-rule="evenodd"/><path fill="#000000" fill-opacity="0.0" d="m170.52756 325.91946l0 0c0 -23.09784 18.724503 -41.822357 41.822357 -41.822357l195.69388 0c11.09198 0 21.729645 4.4062805 29.572876 12.249481c7.8432007 7.843231 12.249481 18.480896 12.249481 29.572876l0 167.28442c0 23.09787 -18.724518 41.822357 -41.822357 41.822357l-195.69388 0l0 0c-23.097855 0 -41.822357 -18.724487 -41.822357 -41.822357z" fill-rule="evenodd"/><path stroke="#980000" stroke-width="2.0" stroke-linejoin="round" stroke-linecap="butt" d="m170.52756 325.91946l0 0c0 -23.09784 18.724503 -41.822357 41.822357 -41.822357l195.69388 0c11.09198 0 21.729645 4.4062805 29.572876 12.249481c7.8432007 7.843231 12.249481 18.480896 12.249481 29.572876l0 167.28442c0 23.09787 -18.724518 41.822357 -41.822357 41.822357l-195.69388 0l0 0c-23.097855 0 -41.822357 -18.724487 -41.822357 -41.822357z" fill-rule="evenodd"/><path fill="#000000" fill-opacity="0.0" d="m327.04462 57.822357l0 0c0 -23.09785 18.724518 -41.822357 41.822357 -41.822357l195.69388 0c11.09198 0 21.729675 4.406271 29.572876 12.249485c7.8432007 7.843212 12.249451 18.480896 12.249451 29.572872l0 167.28442c0 23.09784 -18.724487 41.822357 -41.822327 41.822357l-195.69388 0l0 0c-23.09784 0 -41.822357 -18.724518 -41.822357 -41.822357z" fill-rule="evenodd"/><path stroke="#980000" stroke-width="2.0" stroke-linejoin="round" stroke-linecap="butt" d="m327.04462 57.822357l0 0c0 -23.09785 18.724518 -41.822357 41.822357 -41.822357l195.69388 0c11.09198 0 21.729675 4.406271 29.572876 12.249485c7.8432007 7.843212 12.249451 18.480896 12.249451 29.572872l0 167.28442c0 23.09784 -18.724487 41.822357 -41.822327 41.822357l-195.69388 0l0 0c-23.09784 0 -41.822357 -18.724518 -41.822357 -41.822357z" fill-rule="evenodd"/><path fill="#000000" fill-opacity="0.0" d="m7.9553804 57.83286l0 0c0 -23.09785 18.724506 -41.82236 41.82236 -41.82236l195.69386 0c11.091995 0 21.72966 4.406273 29.57286 12.249485c7.843231 7.843216 12.249512 18.480896 12.249512 29.572876l0 167.28442c0 23.09784 -18.724518 41.822357 -41.822372 41.822357l-195.69386 0l0 0c-23.097853 0 -41.82236 -18.724518 -41.82236 -41.822357z" fill-rule="evenodd"/><path stroke="#980000" stroke-width="2.0" stroke-linejoin="round" stroke-linecap="butt" d="m7.9553804 57.83286l0 0c0 -23.09785 18.724506 -41.82236 41.82236 -41.82236l195.69386 0c11.091995 0 21.72966 4.406273 29.57286 12.249485c7.843231 7.843216 12.249512 18.480896 12.249512 29.572876l0 167.28442c0 23.09784 -18.724518 41.822357 -41.822372 41.822357l-195.69386 0l0 0c-23.097853 0 -41.82236 -18.724518 -41.82236 -41.822357z" fill-rule="evenodd"/><path fill="#1c4587" d="m21.494507 166.00443l0 0c0 -4.5691223 3.7040062 -8.273117 8.27313 -8.273117l236.30414 0c2.1941528 0 4.298462 0.8716278 5.8499756 2.4231415c1.5515137 1.5515137 2.4231567 3.6558075 2.4231567 5.8499756l0 33.091537c0 4.5691223 -3.70401 8.273132 -8.273132 8.273132l-236.30414 0l0 0c-4.569124 0 -8.27313 -3.70401 -8.27313 -8.273132z" fill-rule="evenodd"/><path fill="#ffffff" d="m123.6033 178.9102l0 -11.375l3.5 0q1.5 0 2.6875 0.671875q1.1875 0.671875 1.84375 1.921875q0.671875 1.25 0.671875 2.828125l0 0.53125q0 1.578125 -0.65625 2.8125q-0.65625 1.234375 -1.84375 1.921875q-1.1875 0.671875 -2.671875 0.6875l-3.53125 0zm2.34375 -9.484375l0 7.59375l1.140625 0q1.375 0 2.09375 -0.890625q0.734375 -0.90625 0.75 -2.578125l0 -0.59375q0 -1.734375 -0.71875 -2.625q-0.71875 -0.90625 -2.109375 -0.90625l-1.15625 0zm7.5546875 5.171875q0 -1.25 0.484375 -2.234375q0.484375 -0.984375 1.390625 -1.515625q0.921875 -0.546875 2.125 -0.546875q1.703125 0 2.78125 1.046875q1.09375 1.046875 1.21875 2.84375l0.015625 0.578125q0 1.9375 -1.09375 3.125q-1.078125 1.171875 -2.90625 1.171875q-1.828125 0 -2.921875 -1.171875q-1.09375 -1.171875 -1.09375 -3.1875l0 -0.109375zm2.265625 0.171875q0 1.203125 0.453125 1.84375q0.453125 0.625 1.296875 0.625q0.8125 0 1.265625 -0.625q0.46875 -0.625 0.46875 -2.015625q0 -1.171875 -0.46875 -1.8125q-0.453125 -0.65625 -1.28125 -0.65625q-0.828125 0 -1.28125 0.640625q-0.453125 0.640625 -0.453125 2.0zm10.65625 2.46875q0.625 0 1.015625 -0.34375q0.390625 -0.34375 0.40625 -0.90625l2.109375 0q0 0.859375 -0.46875 1.578125q-0.453125 0.703125 -1.265625 1.109375q-0.796875 0.390625 -1.765625 0.390625q-1.8125 0 -2.859375 -1.15625q-1.046875 -1.15625 -1.046875 -3.1875l0 -0.140625q0 -1.953125 1.03125 -3.109375q1.046875 -1.171875 2.859375 -1.171875q1.59375 0 2.546875 0.90625q0.953125 0.890625 0.96875 2.390625l-2.109375 0q-0.015625 -0.65625 -0.40625 -1.0625q-0.390625 -0.40625 -1.03125 -0.40625q-0.796875 0 -1.203125 0.578125q-0.390625 0.5625 -0.390625 1.859375l0 0.234375q0 1.296875 0.390625 1.875q0.40625 0.5625 1.21875 0.5625zm7.8906097 -1.71875l-0.8125 0.8125l0 2.578125l-2.2499847 0l0 -12.0l2.2499847 0l0 6.640625l0.4375 -0.5625l2.171875 -2.53125l2.703125 0l-3.046875 3.515625l3.3125 4.9375l-2.59375 0l-2.171875 -3.390625zm9.21875 3.546875q-1.859375 0 -3.03125 -1.140625q-1.171875 -1.140625 -1.171875 -3.046875l0 -0.21875q0 -1.265625 0.484375 -2.265625q0.5 -1.015625 1.40625 -1.546875q0.90625 -0.546875 2.0625 -0.546875q1.734375 0 2.71875 1.09375q1.0 1.09375 1.0 3.09375l0 0.921875l-5.375 0q0.109375 0.828125 0.65625 1.328125q0.546875 0.5 1.390625 0.5q1.3125 0 2.046875 -0.9375l1.109375 1.234375q-0.515625 0.71875 -1.390625 1.125q-0.859375 0.40625 -1.90625 0.40625zm-0.265625 -6.9375q-0.671875 0 -1.09375 0.453125q-0.40625 0.453125 -0.53125 1.296875l3.140625 0l0 -0.1875q-0.015625 -0.75 -0.40625 -1.15625q-0.390625 -0.40625 -1.109375 -0.40625zm9.7734375 0.4375q-0.46875 -0.0625 -0.8125 -0.0625q-1.28125 0 -1.6875 0.875l0 5.53125l-2.25 0l0 -8.453125l2.125 0l0.0625 1.0q0.6875 -1.15625 1.890625 -1.15625q0.375 0 0.703125 0.09375l-0.03125 2.171875z" fill-rule="nonzero"/><path fill="#ffffff" d="m109.204865 192.4727q0 1.6875 -0.59375 2.953125q-0.59375 1.265625 -1.703125 1.953125q-1.09375 0.6875 -2.53125 0.6875q-1.40625 0 -2.515625 -0.671875q-1.109375 -0.6875 -1.71875 -1.953125q-0.609375 -1.265625 -0.625 -2.90625l0 -0.5625q0 -1.671875 0.609375 -2.953125q0.609375 -1.28125 1.703125 -1.953125q1.109375 -0.6875 2.53125 -0.6875q1.421875 0 2.53125 0.6875q1.109375 0.671875 1.703125 1.953125q0.609375 1.28125 0.609375 2.953125l0 0.5zm-2.375 -0.515625q0 -1.78125 -0.640625 -2.703125q-0.640625 -0.9375 -1.828125 -0.9375q-1.171875 0 -1.8125 0.921875q-0.640625 0.90625 -0.65625 2.6875l0 0.546875q0 1.75 0.640625 2.71875q0.640625 0.953125 1.84375 0.953125q1.1875 0 1.8125 -0.921875q0.640625 -0.9375 0.640625 -2.703125l0 -0.5625zm8.6875 -0.390625q-0.46875 -0.0625 -0.8125 -0.0625q-1.28125 0 -1.6875 0.875l0 5.53125l-2.25 0l0 -8.453125l2.125 0l0.0625 1.0q0.6875 -1.15625 1.890625 -1.15625q0.375 0 0.703125 0.09375l-0.03125 2.171875zm4.453125 4.671875q0.625 0 1.015625 -0.34375q0.390625 -0.34375 0.40625 -0.90625l2.109375 0q0 0.859375 -0.46875 1.578125q-0.453125 0.703125 -1.265625 1.109375q-0.796875 0.390625 -1.765625 0.390625q-1.8125 0 -2.859375 -1.15625q-1.046875 -1.15625 -1.046875 -3.1875l0 -0.140625q0 -1.953125 1.03125 -3.109375q1.046875 -1.171875 2.859375 -1.171875q1.59375 0 2.546875 0.90625q0.953125 0.890625 0.96875 2.390625l-2.109375 0q-0.015625 -0.65625 -0.40625 -1.0625q-0.390625 -0.40625 -1.03125 -0.40625q-0.796875 0 -1.203125 0.578125q-0.390625 0.5625 -0.390625 1.859375l0 0.234375q0 1.296875 0.390625 1.875q0.40625 0.5625 1.21875 0.5625zm7.03125 -5.859375q0.890625 -1.078125 2.25 -1.078125q2.75 0 2.796875 3.1875l0 5.421875l-2.265625 0l0 -5.359375q0 -0.71875 -0.3125 -1.0625q-0.3125 -0.359375 -1.03125 -0.359375q-1.0 0 -1.4375 0.765625l0 6.015625l-2.265625 0l0 -12.0l2.265625 0l0 4.46875zm10.640625 7.6875q-1.859375 0 -3.03125 -1.140625q-1.171875 -1.140625 -1.171875 -3.046875l0 -0.21875q0 -1.265625 0.484375 -2.265625q0.5 -1.015625 1.40625 -1.546875q0.90625 -0.546875 2.0625 -0.546875q1.734375 0 2.71875 1.09375q1.0 1.09375 1.0 3.09375l0 0.921875l-5.375 0q0.109375 0.828125 0.65625 1.328125q0.546875 0.5 1.390625 0.5q1.3125 0 2.046875 -0.9375l1.109375 1.234375q-0.515625 0.71875 -1.390625 1.125q-0.859375 0.40625 -1.90625 0.40625zm-0.265625 -6.9375q-0.671875 0 -1.09375 0.453125q-0.40625 0.453125 -0.53125 1.296875l3.140625 0l0 -0.1875q-0.015625 -0.75 -0.40625 -1.15625q-0.390625 -0.40625 -1.109375 -0.40625zm9.6015625 4.4375q0 -0.40625 -0.421875 -0.640625q-0.40625 -0.25 -1.3125 -0.4375q-3.015625 -0.625 -3.015625 -2.5625q0 -1.125 0.9375 -1.875q0.9375 -0.75 2.4375 -0.75q1.609375 0 2.578125 0.765625q0.96875 0.75 0.96875 1.953125l-2.265625 0q0 -0.484375 -0.3125 -0.796875q-0.3125 -0.3125 -0.96875 -0.3125q-0.578125 0 -0.890625 0.265625q-0.3125 0.25 -0.3125 0.640625q0 0.375 0.359375 0.609375q0.359375 0.234375 1.203125 0.40625q0.84375 0.15625 1.421875 0.375q1.78125 0.65625 1.78125 2.265625q0 1.15625 -1.0 1.875q-0.984375 0.71875 -2.546875 0.71875q-1.0625 0 -1.890625 -0.375q-0.828125 -0.390625 -1.296875 -1.046875q-0.46875 -0.65625 -0.46875 -1.421875l2.140625 0q0.03125 0.59375 0.4375 0.921875q0.421875 0.3125 1.125 0.3125q0.640625 0 0.96875 -0.234375q0.34375 -0.25 0.34375 -0.65625zm6.3515472 -8.1875l0 2.078125l1.4375 0l0 1.65625l-1.4375 0l0 4.21875q0 0.46875 0.171875 0.671875q0.1875 0.203125 0.6875 0.203125q0.375 0 0.671875 -0.0625l0 1.71875q-0.671875 0.203125 -1.375 0.203125q-2.3749847 0 -2.4218597 -2.40625l0 -4.546875l-1.234375 0l0 -1.65625l1.234375 0l0 -2.078125l2.2656097 0zm7.453125 4.1875q-0.46875 -0.0625 -0.8125 -0.0625q-1.28125 0 -1.6875 0.875l0 5.53125l-2.25 0l0 -8.453125l2.125 0l0.0625 1.0q0.6875 -1.15625 1.890625 -1.15625q0.375 0 0.703125 0.09375l-0.03125 2.171875zm5.7421875 6.34375q-0.15625 -0.3125 -0.21875 -0.765625q-0.828125 0.921875 -2.140625 0.921875q-1.234375 0 -2.0625 -0.71875q-0.8125 -0.71875 -0.8125 -1.8125q0 -1.34375 1.0 -2.0625q1.0 -0.71875 2.875 -0.734375l1.046875 0l0 -0.484375q0 -0.578125 -0.3125 -0.921875q-0.296875 -0.359375 -0.9375 -0.359375q-0.578125 0 -0.90625 0.28125q-0.3125 0.265625 -0.3125 0.734375l-2.265625 0q0 -0.734375 0.453125 -1.359375q0.453125 -0.625 1.28125 -0.96875q0.828125 -0.359375 1.859375 -0.359375q1.5625 0 2.484375 0.78125q0.921875 0.78125 0.921875 2.203125l0 3.671875q0 1.203125 0.328125 1.8125l0 0.140625l-2.28125 0zm-1.859375 -1.578125q0.5 0 0.921875 -0.21875q0.421875 -0.21875 0.625 -0.59375l0 -1.453125l-0.84375 0q-1.703125 0 -1.8125 1.171875l0 0.125q0 0.421875 0.296875 0.703125q0.296875 0.265625 0.8125 0.265625zm8.25 -8.953125l0 2.078125l1.4375 0l0 1.65625l-1.4375 0l0 4.21875q0 0.46875 0.171875 0.671875q0.1875 0.203125 0.6875 0.203125q0.375 0 0.671875 -0.0625l0 1.71875q-0.671875 0.203125 -1.375 0.203125q-2.375 0 -2.421875 -2.40625l0 -4.546875l-1.234375 0l0 -1.65625l1.234375 0l0 -2.078125l2.265625 0zm5.078125 10.53125l-2.265625 0l0 -8.453125l2.265625 0l0 8.453125zm-2.390625 -10.640625q0 -0.515625 0.328125 -0.84375q0.34375 -0.328125 0.9375 -0.328125q0.578125 0 0.921875 0.328125q0.34375 0.328125 0.34375 0.84375q0 0.515625 -0.359375 0.84375q-0.34375 0.328125 -0.921875 0.328125q-0.5625 0 -0.90625 -0.328125q-0.34375 -0.328125 -0.34375 -0.84375zm3.8984375 6.328125q0 -1.25 0.484375 -2.234375q0.484375 -0.984375 1.390625 -1.515625q0.921875 -0.546875 2.125 -0.546875q1.703125 0 2.78125 1.046875q1.09375 1.046875 1.21875 2.84375l0.015625 0.578125q0 1.9375 -1.09375 3.125q-1.078125 1.171875 -2.90625 1.171875q-1.828125 0 -2.921875 -1.171875q-1.09375 -1.171875 -1.09375 -3.1875l0 -0.109375zm2.265625 0.171875q0 1.203125 0.453125 1.84375q0.453125 0.625 1.296875 0.625q0.8125 0 1.265625 -0.625q0.46875 -0.625 0.46875 -2.015625q0 -1.171875 -0.46875 -1.8125q-0.453125 -0.65625 -1.28125 -0.65625q-0.828125 0 -1.28125 0.640625q-0.453125 0.640625 -0.453125 2.0zm9.21875 -4.3125l0.0625 0.96875q0.90625 -1.125 2.4375 -1.125q1.34375 0 2.0 0.796875q0.65625 0.78125 0.671875 2.34375l0 5.46875l-2.265625 0l0 -5.40625q0 -0.71875 -0.3125 -1.046875q-0.3125 -0.328125 -1.03125 -0.328125q-0.953125 0 -1.4375 0.8125l0 5.96875l-2.25 0l0 -8.453125l2.125 0z" fill-rule="nonzero"/><path fill="#2ccee2" d="m21.52231 110.70355l0 0c0 -3.8211365 3.097639 -6.9187775 6.9187737 -6.9187775l239.01283 0c1.8349915 0 3.5947876 0.7289429 4.892334 2.0264664c1.2975159 1.2975159 2.0264587 3.057335 2.0264587 4.892311l0 27.674255c0 3.8211365 -3.0976562 6.9187775 -6.9187927 6.9187775l-239.01283 0c-3.8211346 0 -6.9187737 -3.097641 -6.9187737 -6.9187775z" fill-rule="evenodd"/><path fill="#ffffff" d="m142.33702 126.60631l1.28125 -6.734375l1.953125 0l-2.109375 9.46875l-1.96875 0l-1.53125 -6.34375l-1.546875 6.34375l-1.96875 0l-2.09375 -9.46875l1.9375 0l1.28125 6.71875l1.5625 -6.71875l1.65625 0l1.546875 6.734375zm9.983734 -1.375l-3.75 0l0 2.546875l4.40625 0l0 1.5625l-6.359375 0l0 -9.46875l6.34375 0l0 1.578125l-4.390625 0l0 2.25l3.75 0l0 1.53125zm1.7939453 4.109375l0 -9.46875l3.328125 0q1.71875 0 2.609375 0.65625q0.890625 0.65625 0.890625 1.9375q0 0.6875 -0.359375 1.21875q-0.359375 0.53125 -1.0 0.78125q0.734375 0.1875 1.15625 0.75q0.421875 0.546875 0.421875 1.34375q0 1.359375 -0.875 2.0625q-0.875 0.703125 -2.484375 0.71875l-3.6875 0zm1.953125 -4.125l0 2.5625l1.671875 0q0.6875 0 1.078125 -0.328125q0.390625 -0.328125 0.390625 -0.921875q0 -1.296875 -1.34375 -1.3125l-1.796875 0zm0 -1.375l1.453125 0q1.46875 -0.03125 1.46875 -1.1875q0 -0.640625 -0.375 -0.921875q-0.375 -0.28125 -1.171875 -0.28125l-1.375 0l0 2.390625z" fill-rule="nonzero"/><path fill="#c91313" d="m21.523472 55.900402l0 0c0 -3.8211327 3.097641 -6.9187737 6.9187737 -6.9187737l239.01283 0c1.8349915 0 3.594818 0.72893906 4.892334 2.0264626c1.2975159 1.2975197 2.0264587 3.0573387 2.0264587 4.892311l0 27.67426c0 3.8211365 -3.0976562 6.9187775 -6.9187927 6.9187775l-239.01283 0c-3.8211327 0 -6.9187737 -3.097641 -6.9187737 -6.9187775z" fill-rule="evenodd"/><path fill="#ffffff" d="m83.222885 74.53753l-1.953125 0l0 -4.0625l-3.8125 0l0 4.0625l-1.953125 0l0 -9.46875l1.953125 0l0 3.828125l3.8125 0l0 -3.828125l1.953125 0l0 9.46875zm8.649979 -7.890625l-2.90625 0l0 7.890625l-1.953125 0l0 -7.890625l-2.859375 0l0 -1.578125l7.71875 0l0 1.578125zm8.349655 0l-2.90625 0l0 7.890625l-1.953125 0l0 -7.890625l-2.859375 0l0 -1.578125l7.71875 0l0 1.578125zm3.0579834 4.546875l0 3.34375l-1.953125 0l0 -9.46875l3.703125 0q1.0625 0 1.875 0.390625q0.8125 0.390625 1.25 1.109375q0.4375 0.71875 0.4375 1.625q0 1.390625 -0.953125 2.203125q-0.953125 0.796875 -2.640625 0.796875l-1.71875 0zm0 -1.578125l1.75 0q0.765625 0 1.171875 -0.359375q0.40625 -0.375 0.40625 -1.046875q0 -0.6875 -0.40625 -1.109375q-0.40625 -0.4375 -1.125 -0.453125l-1.796875 0l0 2.96875zm11.565659 2.4375q0 -0.5625 -0.390625 -0.84375q-0.390625 -0.296875 -1.40625 -0.625q-1.015625 -0.328125 -1.609375 -0.65625q-1.625 -0.875 -1.625 -2.34375q0 -0.765625 0.4375 -1.359375q0.4375 -0.609375 1.25 -0.953125q0.8125 -0.34375 1.8125 -0.34375q1.015625 0 1.8125 0.375q0.796875 0.359375 1.234375 1.03125q0.4375 0.671875 0.4375 1.53125l-1.953125 0q0 -0.65625 -0.40625 -1.015625q-0.40625 -0.359375 -1.15625 -0.359375q-0.71875 0 -1.125 0.3125q-0.390625 0.296875 -0.390625 0.78125q0 0.46875 0.46875 0.78125q0.46875 0.3125 1.375 0.578125q1.671875 0.5 2.421875 1.25q0.765625 0.734375 0.765625 1.84375q0 1.234375 -0.9375 1.9375q-0.921875 0.6875 -2.5 0.6875q-1.09375 0 -2.0 -0.390625q-0.890625 -0.40625 -1.359375 -1.09375q-0.46875 -0.703125 -0.46875 -1.625l1.953125 0q0 1.578125 1.875 1.578125q0.703125 0 1.09375 -0.28125q0.390625 -0.296875 0.390625 -0.796875zm3.7402954 3.296875l-1.390625 0l3.484375 -10.28125l1.390625 0l-3.484375 10.28125zm9.431656 -3.296875q0 -0.5625 -0.390625 -0.84375q-0.390625 -0.296875 -1.40625 -0.625q-1.015625 -0.328125 -1.609375 -0.65625q-1.625 -0.875 -1.625 -2.34375q0 -0.765625 0.4375 -1.359375q0.4375 -0.609375 1.25 -0.953125q0.8125 -0.34375 1.8125 -0.34375q1.015625 0 1.8125 0.375q0.796875 0.359375 1.234375 1.03125q0.4375 0.671875 0.4375 1.53125l-1.953125 0q0 -0.65625 -0.40625 -1.015625q-0.40625 -0.359375 -1.15625 -0.359375q-0.71875 0 -1.125 0.3125q-0.390625 0.296875 -0.390625 0.78125q0 0.46875 0.46875 0.78125q0.46875 0.3125 1.375 0.578125q1.671875 0.5 2.421875 1.25q0.765625 0.734375 0.765625 1.84375q0 1.234375 -0.9375 1.9375q-0.921875 0.6875 -2.5 0.6875q-1.09375 0 -2.0 -0.390625q-0.890625 -0.40625 -1.359375 -1.09375q-0.46875 -0.703125 -0.46875 -1.625l1.953125 0q0 1.578125 1.875 1.578125q0.703125 0 1.09375 -0.28125q0.390625 -0.296875 0.390625 -0.796875zm8.19342 0q0 -0.5625 -0.390625 -0.84375q-0.390625 -0.296875 -1.40625 -0.625q-1.015625 -0.328125 -1.609375 -0.65625q-1.625 -0.875 -1.625 -2.34375q0 -0.765625 0.4375 -1.359375q0.4375 -0.609375 1.25 -0.953125q0.8125 -0.34375 1.8125 -0.34375q1.015625 0 1.8125 0.375q0.796875 0.359375 1.234375 1.03125q0.4375 0.671875 0.4375 1.53125l-1.953125 0q0 -0.65625 -0.40625 -1.015625q-0.40625 -0.359375 -1.15625 -0.359375q-0.71875 0 -1.125 0.3125q-0.390625 0.296875 -0.390625 0.78125q0 0.46875 0.46875 0.78125q0.46875 0.3125 1.375 0.578125q1.671875 0.5 2.421875 1.25q0.765625 0.734375 0.765625 1.84375q0 1.234375 -0.9375 1.9375q-0.921875 0.6875 -2.5 0.6875q-1.09375 0 -2.0 -0.390625q-0.890625 -0.40625 -1.359375 -1.09375q-0.46875 -0.703125 -0.46875 -1.625l1.953125 0q0 1.578125 1.875 1.578125q0.703125 0 1.09375 -0.28125q0.390625 -0.296875 0.390625 -0.796875zm5.2246704 0.921875l4.140625 0l0 1.5625l-6.09375 0l0 -9.46875l1.953125 0l0 7.90625zm15.33313 -6.328125l-2.90625 0l0 7.890625l-1.953125 0l0 -7.890625l-2.859375 0l0 -1.578125l7.71875 0l0 1.578125zm3.6504364 8.015625q-1.546875 0 -2.53125 -0.9375q-0.96875 -0.953125 -0.96875 -2.53125l0 -0.1875q0 -1.0625 0.40625 -1.890625q0.40625 -0.84375 1.15625 -1.296875q0.765625 -0.453125 1.71875 -0.453125q1.453125 0 2.28125 0.921875q0.828125 0.90625 0.828125 2.578125l0 0.765625l-4.484375 0q0.09375 0.6875 0.546875 1.109375q0.46875 0.40625 1.171875 0.40625q1.078125 0 1.6875 -0.78125l0.921875 1.03125q-0.421875 0.59375 -1.140625 0.9375q-0.71875 0.328125 -1.59375 0.328125zm-0.21875 -5.78125q-0.5625 0 -0.90625 0.390625q-0.34375 0.375 -0.453125 1.078125l2.625 0l0 -0.15625q-0.015625 -0.625 -0.34375 -0.96875q-0.328125 -0.34375 -0.921875 -0.34375zm8.126099 0.375q-0.375 -0.046875 -0.671875 -0.046875q-1.0625 0 -1.390625 0.71875l0 4.609375l-1.890625 0l0 -7.046875l1.78125 0l0.046875 0.84375q0.578125 -0.96875 1.578125 -0.96875q0.3125 0 0.578125 0.078125l-0.03125 1.8125zm2.6738892 -1.765625l0.0625 0.796875q0.75 -0.921875 2.015625 -0.921875q1.359375 0 1.875 1.078125q0.734375 -1.078125 2.109375 -1.078125q1.15625 0 1.703125 0.671875q0.5625 0.65625 0.5625 2.0l0 4.5l-1.890625 0l0 -4.484375q0 -0.609375 -0.234375 -0.875q-0.234375 -0.28125 -0.8125 -0.28125q-0.859375 0 -1.171875 0.8125l0 4.828125l-1.875 0l0 -4.484375q0 -0.609375 -0.25 -0.875q-0.234375 -0.28125 -0.8125 -0.28125q-0.796875 0 -1.15625 0.65625l0 4.984375l-1.890625 0l0 -7.046875l1.765625 0zm11.757217 7.046875l-1.890625 0l0 -7.046875l1.890625 0l0 7.046875zm-2.0 -8.859375q0 -0.421875 0.28125 -0.6875q0.296875 -0.28125 0.78125 -0.28125q0.484375 0 0.765625 0.28125q0.28125 0.265625 0.28125 0.6875q0 0.421875 -0.296875 0.703125q-0.28125 0.265625 -0.765625 0.265625q-0.46875 0 -0.765625 -0.265625q-0.28125 -0.28125 -0.28125 -0.703125zm5.283783 1.8125l0.0625 0.8125q0.75 -0.9375 2.015625 -0.9375q1.125 0 1.671875 0.65625q0.546875 0.65625 0.5625 1.96875l0 4.546875l-1.890625 0l0 -4.5q0 -0.609375 -0.265625 -0.875q-0.25 -0.265625 -0.859375 -0.265625q-0.78125 0 -1.1875 0.671875l0 4.96875l-1.875 0l0 -7.046875l1.765625 0zm9.808289 7.046875q-0.125 -0.25 -0.1875 -0.625q-0.671875 0.75 -1.765625 0.75q-1.046875 0 -1.734375 -0.59375q-0.671875 -0.59375 -0.671875 -1.515625q0 -1.109375 0.828125 -1.703125q0.84375 -0.609375 2.40625 -0.609375l0.859375 0l0 -0.40625q0 -0.484375 -0.25 -0.78125q-0.25 -0.296875 -0.78125 -0.296875q-0.484375 0 -0.75 0.234375q-0.265625 0.21875 -0.265625 0.625l-1.890625 0q0 -0.609375 0.375 -1.125q0.390625 -0.53125 1.078125 -0.828125q0.6875 -0.296875 1.546875 -0.296875q1.296875 0 2.0625 0.65625q0.765625 0.65625 0.765625 1.84375l0 3.046875q0.015625 1.0 0.28125 1.515625l0 0.109375l-1.90625 0zm-1.546875 -1.3125q0.40625 0 0.75 -0.171875q0.359375 -0.1875 0.53125 -0.5l0 -1.21875l-0.703125 0q-1.40625 0 -1.5 0.984375l0 0.109375q0 0.34375 0.234375 0.578125q0.25 0.21875 0.6875 0.21875zm6.864395 -7.453125l0 1.71875l1.203125 0l0 1.390625l-1.203125 0l0 3.515625q0 0.390625 0.15625 0.5625q0.15625 0.15625 0.578125 0.15625q0.3125 0 0.546875 -0.046875l0 1.4375q-0.546875 0.15625 -1.140625 0.15625q-1.984375 0 -2.015625 -2.0l0 -3.78125l-1.03125 0l0 -1.390625l1.03125 0l0 -1.71875l1.875 0zm4.2378235 8.765625l-1.890625 0l0 -7.046875l1.890625 0l0 7.046875zm-2.0 -8.859375q0 -0.421875 0.28125 -0.6875q0.296875 -0.28125 0.78125 -0.28125q0.484375 0 0.765625 0.28125q0.28125 0.265625 0.28125 0.6875q0 0.421875 -0.296875 0.703125q-0.28125 0.265625 -0.765625 0.265625q-0.46875 0 -0.765625 -0.265625q-0.28125 -0.28125 -0.28125 -0.703125zm3.252533 5.28125q0 -1.0625 0.40625 -1.875q0.40625 -0.828125 1.15625 -1.265625q0.765625 -0.453125 1.765625 -0.453125q1.4375 0 2.328125 0.875q0.90625 0.875 1.015625 2.359375l0 0.484375q0 1.625 -0.90625 2.609375q-0.890625 0.96875 -2.421875 0.96875q-1.515625 0 -2.4375 -0.96875q-0.90625 -0.984375 -0.90625 -2.65625l0 -0.078125zm1.890625 0.125q0 1.0 0.375 1.53125q0.375 0.53125 1.078125 0.53125q0.6875 0 1.0625 -0.515625q0.390625 -0.53125 0.390625 -1.671875q0 -0.984375 -0.390625 -1.53125q-0.375 -0.546875 -1.078125 -0.546875q-0.6875 0 -1.0625 0.546875q-0.375 0.53125 -0.375 1.65625zm7.6767426 -3.59375l0.0625 0.8125q0.75 -0.9375 2.015625 -0.9375q1.125 0 1.671875 0.65625q0.546875 0.65625 0.5625 1.96875l0 4.546875l-1.890625 0l0 -4.5q0 -0.609375 -0.265625 -0.875q-0.25 -0.265625 -0.859375 -0.265625q-0.78125 0 -1.1875 0.671875l0 4.96875l-1.875 0l0 -7.046875l1.765625 0z" fill-rule="nonzero"/><path fill="#000000" fill-opacity="0.0" d="m57.64794 8.9366045l173.35434 0l0 34.141735l-173.35434 0z" fill-rule="evenodd"/><path fill="#980000" d="m130.78137 32.57535l3.015625 -9.984375l3.046875 0l-4.625 13.265625l-2.84375 0l-4.609375 -13.265625l3.03125 0l2.984375 9.984375zm10.869492 -9.984375l3.40625 9.625l3.390625 -9.625l3.59375 0l0 13.265625l-2.75 0l0 -3.625l0.28125 -6.265625l-3.578125 9.890625l-1.875 0l-3.578125 -9.875l0.28125 6.25l0 3.625l-2.734375 0l0 -13.265625l3.5625 0zm18.889313 13.265625l-2.625 0l0 -10.140625l-3.15625 0.96875l0 -2.140625l5.5 -1.96875l0.28125 0l0 13.28125z" fill-rule="nonzero"/><path fill="#1c4587" d="m340.58374 182.00443l0 0c0 -4.5691223 3.70401 -8.273117 8.273132 -8.273117l236.30414 0c2.1941528 0 4.298462 0.8716278 5.8499756 2.4231415c1.5515137 1.5515137 2.4231567 3.6558075 2.4231567 5.8499756l0 33.091537c0 4.5691223 -3.7040405 8.273132 -8.273132 8.273132l-236.30414 0l0 0c-4.5691223 0 -8.273132 -3.70401 -8.273132 -8.273132z" fill-rule="evenodd"/><path fill="#ffffff" d="m442.69254 194.9102l0 -11.375l3.5 0q1.5 0 2.6875 0.671875q1.1875 0.671875 1.84375 1.921875q0.671875 1.25 0.671875 2.828125l0 0.53125q0 1.578125 -0.65625 2.8125q-0.65625 1.234375 -1.84375 1.921875q-1.1875 0.671875 -2.671875 0.6875l-3.53125 0zm2.34375 -9.484375l0 7.59375l1.140625 0q1.375 0 2.09375 -0.890625q0.734375 -0.90625 0.75 -2.578125l0 -0.59375q0 -1.734375 -0.71875 -2.625q-0.71875 -0.90625 -2.109375 -0.90625l-1.15625 0zm7.5546875 5.171875q0 -1.25 0.484375 -2.234375q0.484375 -0.984375 1.390625 -1.515625q0.921875 -0.546875 2.125 -0.546875q1.703125 0 2.78125 1.046875q1.09375 1.046875 1.21875 2.84375l0.015625 0.578125q0 1.9375 -1.09375 3.125q-1.078125 1.171875 -2.90625 1.171875q-1.828125 0 -2.921875 -1.171875q-1.09375 -1.171875 -1.09375 -3.1875l0 -0.109375zm2.265625 0.171875q0 1.203125 0.453125 1.84375q0.453125 0.625 1.296875 0.625q0.8125 0 1.265625 -0.625q0.46875 -0.625 0.46875 -2.015625q0 -1.171875 -0.46875 -1.8125q-0.453125 -0.65625 -1.28125 -0.65625q-0.828125 0 -1.28125 0.640625q-0.453125 0.640625 -0.453125 2.0zm10.65625 2.46875q0.625 0 1.015625 -0.34375q0.390625 -0.34375 0.40625 -0.90625l2.109375 0q0 0.859375 -0.46875 1.578125q-0.453125 0.703125 -1.265625 1.109375q-0.796875 0.390625 -1.765625 0.390625q-1.8125 0 -2.859375 -1.15625q-1.046875 -1.15625 -1.046875 -3.1875l0 -0.140625q0 -1.953125 1.03125 -3.109375q1.046875 -1.171875 2.859375 -1.171875q1.59375 0 2.546875 0.90625q0.953125 0.890625 0.96875 2.390625l-2.109375 0q-0.015625 -0.65625 -0.40625 -1.0625q-0.390625 -0.40625 -1.03125 -0.40625q-0.796875 0 -1.203125 0.578125q-0.390625 0.5625 -0.390625 1.859375l0 0.234375q0 1.296875 0.390625 1.875q0.40625 0.5625 1.21875 0.5625zm7.890625 -1.71875l-0.8125 0.8125l0 2.578125l-2.25 0l0 -12.0l2.25 0l0 6.640625l0.4375 -0.5625l2.171875 -2.53125l2.703125 0l-3.046875 3.515625l3.3125 4.9375l-2.59375 0l-2.171875 -3.390625zm9.21875 3.546875q-1.859375 0 -3.03125 -1.140625q-1.171875 -1.140625 -1.171875 -3.046875l0 -0.21875q0 -1.265625 0.484375 -2.265625q0.5 -1.015625 1.40625 -1.546875q0.90625 -0.546875 2.0625 -0.546875q1.734375 0 2.71875 1.09375q1.0 1.09375 1.0 3.09375l0 0.921875l-5.375 0q0.109375 0.828125 0.65625 1.328125q0.546875 0.5 1.390625 0.5q1.3125 0 2.046875 -0.9375l1.109375 1.234375q-0.515625 0.71875 -1.390625 1.125q-0.859375 0.40625 -1.90625 0.40625zm-0.265625 -6.9375q-0.671875 0 -1.09375 0.453125q-0.40625 0.453125 -0.53125 1.296875l3.140625 0l0 -0.1875q-0.015625 -0.75 -0.40625 -1.15625q-0.390625 -0.40625 -1.109375 -0.40625zm9.7734375 0.4375q-0.46875 -0.0625 -0.8125 -0.0625q-1.28125 0 -1.6875 0.875l0 5.53125l-2.25 0l0 -8.453125l2.125 0l0.0625 1.0q0.6875 -1.15625 1.890625 -1.15625q0.375 0 0.703125 0.09375l-0.03125 2.171875z" fill-rule="nonzero"/><path fill="#ffffff" d="m428.2941 208.4727q0 1.6875 -0.59375 2.953125q-0.59375 1.265625 -1.703125 1.953125q-1.09375 0.6875 -2.53125 0.6875q-1.40625 0 -2.515625 -0.671875q-1.109375 -0.6875 -1.71875 -1.953125q-0.609375 -1.265625 -0.625 -2.90625l0 -0.5625q0 -1.671875 0.609375 -2.953125q0.609375 -1.28125 1.703125 -1.953125q1.109375 -0.6875 2.53125 -0.6875q1.421875 0 2.53125 0.6875q1.109375 0.671875 1.703125 1.953125q0.609375 1.28125 0.609375 2.953125l0 0.5zm-2.375 -0.515625q0 -1.78125 -0.640625 -2.703125q-0.640625 -0.9375 -1.828125 -0.9375q-1.171875 0 -1.8125 0.921875q-0.640625 0.90625 -0.65625 2.6875l0 0.546875q0 1.75 0.640625 2.71875q0.640625 0.953125 1.84375 0.953125q1.1875 0 1.8125 -0.921875q0.640625 -0.9375 0.640625 -2.703125l0 -0.5625zm8.6875 -0.390625q-0.46875 -0.0625 -0.8125 -0.0625q-1.28125 0 -1.6875 0.875l0 5.53125l-2.25 0l0 -8.453125l2.125 0l0.0625 1.0q0.6875 -1.15625 1.890625 -1.15625q0.375 0 0.703125 0.09375l-0.03125 2.171875zm4.453125 4.671875q0.625 0 1.015625 -0.34375q0.390625 -0.34375 0.40625 -0.90625l2.109375 0q0 0.859375 -0.46875 1.578125q-0.453125 0.703125 -1.265625 1.109375q-0.796875 0.390625 -1.765625 0.390625q-1.8125 0 -2.859375 -1.15625q-1.046875 -1.15625 -1.046875 -3.1875l0 -0.140625q0 -1.953125 1.03125 -3.109375q1.046875 -1.171875 2.859375 -1.171875q1.59375 0 2.546875 0.90625q0.953125 0.890625 0.96875 2.390625l-2.109375 0q-0.015625 -0.65625 -0.40625 -1.0625q-0.390625 -0.40625 -1.03125 -0.40625q-0.796875 0 -1.203125 0.578125q-0.390625 0.5625 -0.390625 1.859375l0 0.234375q0 1.296875 0.390625 1.875q0.40625 0.5625 1.21875 0.5625zm7.03125 -5.859375q0.890625 -1.078125 2.25 -1.078125q2.75 0 2.796875 3.1875l0 5.421875l-2.265625 0l0 -5.359375q0 -0.71875 -0.3125 -1.0625q-0.3125 -0.359375 -1.03125 -0.359375q-1.0 0 -1.4375 0.765625l0 6.015625l-2.265625 0l0 -12.0l2.265625 0l0 4.46875zm10.640625 7.6875q-1.859375 0 -3.03125 -1.140625q-1.171875 -1.140625 -1.171875 -3.046875l0 -0.21875q0 -1.265625 0.484375 -2.265625q0.5 -1.015625 1.40625 -1.546875q0.90625 -0.546875 2.0625 -0.546875q1.734375 0 2.71875 1.09375q1.0 1.09375 1.0 3.09375l0 0.921875l-5.375 0q0.109375 0.828125 0.65625 1.328125q0.546875 0.5 1.390625 0.5q1.3125 0 2.046875 -0.9375l1.109375 1.234375q-0.515625 0.71875 -1.390625 1.125q-0.859375 0.40625 -1.90625 0.40625zm-0.265625 -6.9375q-0.671875 0 -1.09375 0.453125q-0.40625 0.453125 -0.53125 1.296875l3.140625 0l0 -0.1875q-0.015625 -0.75 -0.40625 -1.15625q-0.390625 -0.40625 -1.109375 -0.40625zm9.6015625 4.4375q0 -0.40625 -0.421875 -0.640625q-0.40625 -0.25 -1.3125 -0.4375q-3.015625 -0.625 -3.015625 -2.5625q0 -1.125 0.9375 -1.875q0.9375 -0.75 2.4375 -0.75q1.609375 0 2.578125 0.765625q0.96875 0.75 0.96875 1.953125l-2.265625 0q0 -0.484375 -0.3125 -0.796875q-0.3125 -0.3125 -0.96875 -0.3125q-0.578125 0 -0.890625 0.265625q-0.3125 0.25 -0.3125 0.640625q0 0.375 0.359375 0.609375q0.359375 0.234375 1.203125 0.40625q0.84375 0.15625 1.421875 0.375q1.78125 0.65625 1.78125 2.265625q0 1.15625 -1.0 1.875q-0.984375 0.71875 -2.546875 0.71875q-1.0625 0 -1.890625 -0.375q-0.828125 -0.390625 -1.296875 -1.046875q-0.46875 -0.65625 -0.46875 -1.421875l2.140625 0q0.03125 0.59375 0.4375 0.921875q0.421875 0.3125 1.125 0.3125q0.640625 0 0.96875 -0.234375q0.34375 -0.25 0.34375 -0.65625zm6.3515625 -8.1875l0 2.078125l1.4375 0l0 1.65625l-1.4375 0l0 4.21875q0 0.46875 0.171875 0.671875q0.1875 0.203125 0.6875 0.203125q0.375 0 0.671875 -0.0625l0 1.71875q-0.671875 0.203125 -1.375 0.203125q-2.375 0 -2.421875 -2.40625l0 -4.546875l-1.234375 0l0 -1.65625l1.234375 0l0 -2.078125l2.265625 0zm7.453125 4.1875q-0.46875 -0.0625 -0.8125 -0.0625q-1.28125 0 -1.6875 0.875l0 5.53125l-2.25 0l0 -8.453125l2.125 0l0.0625 1.0q0.6875 -1.15625 1.890625 -1.15625q0.375 0 0.703125 0.09375l-0.03125 2.171875zm5.7421875 6.34375q-0.15625 -0.3125 -0.21875 -0.765625q-0.828125 0.921875 -2.140625 0.921875q-1.234375 0 -2.0625 -0.71875q-0.8125 -0.71875 -0.8125 -1.8125q0 -1.34375 1.0 -2.0625q1.0 -0.71875 2.875 -0.734375l1.046875 0l0 -0.484375q0 -0.578125 -0.3125 -0.921875q-0.296875 -0.359375 -0.9375 -0.359375q-0.578125 0 -0.90625 0.28125q-0.3125 0.265625 -0.3125 0.734375l-2.265625 0q0 -0.734375 0.453125 -1.359375q0.453125 -0.625 1.28125 -0.96875q0.828125 -0.359375 1.859375 -0.359375q1.5625 0 2.484375 0.78125q0.921875 0.78125 0.921875 2.203125l0 3.671875q0 1.203125 0.328125 1.8125l0 0.140625l-2.28125 0zm-1.859375 -1.578125q0.5 0 0.921875 -0.21875q0.421875 -0.21875 0.625 -0.59375l0 -1.453125l-0.84375 0q-1.703125 0 -1.8125 1.171875l0 0.125q0 0.421875 0.296875 0.703125q0.296875 0.265625 0.8125 0.265625zm8.25 -8.953125l0 2.078125l1.4375 0l0 1.65625l-1.4375 0l0 4.21875q0 0.46875 0.171875 0.671875q0.1875 0.203125 0.6875 0.203125q0.375 0 0.671875 -0.0625l0 1.71875q-0.671875 0.203125 -1.375 0.203125q-2.375 0 -2.421875 -2.40625l0 -4.546875l-1.234375 0l0 -1.65625l1.234375 0l0 -2.078125l2.265625 0zm5.078125 10.53125l-2.265625 0l0 -8.453125l2.265625 0l0 8.453125zm-2.390625 -10.640625q0 -0.515625 0.328125 -0.84375q0.34375 -0.328125 0.9375 -0.328125q0.578125 0 0.921875 0.328125q0.34375 0.328125 0.34375 0.84375q0 0.515625 -0.359375 0.84375q-0.34375 0.328125 -0.921875 0.328125q-0.5625 0 -0.90625 -0.328125q-0.34375 -0.328125 -0.34375 -0.84375zm3.8984375 6.328125q0 -1.25 0.484375 -2.234375q0.484375 -0.984375 1.390625 -1.515625q0.921875 -0.546875 2.125 -0.546875q1.703125 0 2.78125 1.046875q1.09375 1.046875 1.21875 2.84375l0.015625 0.578125q0 1.9375 -1.09375 3.125q-1.078125 1.171875 -2.90625 1.171875q-1.828125 0 -2.921875 -1.171875q-1.09375 -1.171875 -1.09375 -3.1875l0 -0.109375zm2.265625 0.171875q0 1.203125 0.453125 1.84375q0.453125 0.625 1.296875 0.625q0.8125 0 1.265625 -0.625q0.46875 -0.625 0.46875 -2.015625q0 -1.171875 -0.46875 -1.8125q-0.453125 -0.65625 -1.28125 -0.65625q-0.828125 0 -1.28125 0.640625q-0.453125 0.640625 -0.453125 2.0zm9.21875 -4.3125l0.0625 0.96875q0.90625 -1.125 2.4374695 -1.125q1.34375 0 2.0 0.796875q0.65625 0.78125 0.671875 2.34375l0 5.46875l-2.265625 0l0 -5.40625q0 -0.71875 -0.3125 -1.046875q-0.3125 -0.328125 -1.0312195 -0.328125q-0.953125 0 -1.4375 0.8125l0 5.96875l-2.25 0l0 -8.453125l2.125 0z" fill-rule="nonzero"/><path fill="#4a86e8" d="m340.58267 140.84264l0 0c0 -3.1427307 2.547699 -5.690399 5.690399 -5.690399l241.4696 0c1.5091553 0 2.956543 0.5995178 4.0237427 1.6666718c1.0671387 1.0671539 1.666626 2.5145416 1.666626 4.0237274l0 22.760925c0 3.1427155 -2.5476685 5.690399 -5.6903687 5.690399l-241.4696 0c-3.1427002 0 -5.690399 -2.5476837 -5.690399 -5.690399z" fill-rule="evenodd"/><path fill="#ffffff" d="m445.92194 155.09872q0 -0.671875 -0.46875 -1.015625q-0.46875 -0.359375 -1.6875 -0.75q-1.21875 -0.40625 -1.9375 -0.78125q-1.9375 -1.046875 -1.9375 -2.828125q0 -0.921875 0.515625 -1.640625q0.53125 -0.71875 1.5 -1.125q0.96875 -0.40625 2.1875 -0.40625q1.21875 0 2.171875 0.4375q0.953125 0.4375 1.46875 1.25q0.53125 0.796875 0.53125 1.828125l-2.34375 0q0 -0.78125 -0.5 -1.21875q-0.484375 -0.4375 -1.375 -0.4375q-0.859375 0 -1.34375 0.375q-0.46875 0.359375 -0.46875 0.953125q0 0.546875 0.5625 0.921875q0.5625 0.375 1.640625 0.703125q2.0 0.609375 2.90625 1.5q0.921875 0.890625 0.921875 2.21875q0 1.46875 -1.125 2.3125q-1.109375 0.84375 -3.0 0.84375q-1.3125 0 -2.390625 -0.484375q-1.078125 -0.484375 -1.640625 -1.3125q-0.5625 -0.84375 -0.5625 -1.9375l2.34375 0q0 1.875 2.25 1.875q0.84375 0 1.3125 -0.328125q0.46875 -0.34375 0.46875 -0.953125zm6.4921875 -7.546875l0 2.078125l1.4375 0l0 1.65625l-1.4375 0l0 4.21875q0 0.46875 0.171875 0.671875q0.1875 0.203125 0.6875 0.203125q0.375 0 0.671875 -0.0625l0 1.71875q-0.671875 0.203125 -1.375 0.203125q-2.375 0 -2.421875 -2.40625l0 -4.546875l-1.234375 0l0 -1.65625l1.234375 0l0 -2.078125l2.265625 0zm2.109375 6.21875q0 -1.25 0.484375 -2.234375q0.484375 -0.984375 1.390625 -1.515625q0.921875 -0.546875 2.125 -0.546875q1.703125 0 2.78125 1.046875q1.09375 1.046875 1.21875 2.84375l0.015625 0.578125q0 1.9375 -1.09375 3.125q-1.078125 1.171875 -2.90625 1.171875q-1.828125 0 -2.921875 -1.171875q-1.09375 -1.171875 -1.09375 -3.1875l0 -0.109375zm2.265625 0.171875q0 1.203125 0.453125 1.84375q0.453125 0.625 1.296875 0.625q0.8125 0 1.265625 -0.625q0.46875 -0.625 0.46875 -2.015625q0 -1.171875 -0.46875 -1.8125q-0.453125 -0.65625 -1.28125 -0.65625q-0.828125 0 -1.28125 0.640625q-0.453125 0.640625 -0.453125 2.0zm11.890625 -2.203125q-0.46875 -0.0625 -0.8125 -0.0625q-1.28125 0 -1.6875 0.875l0 5.53125l-2.25 0l0 -8.453125l2.125 0l0.0625 1.0q0.6875 -1.15625 1.890625 -1.15625q0.375 0 0.703125 0.09375l-0.03125 2.171875zm5.7421875 6.34375q-0.15625 -0.3125 -0.21875 -0.765625q-0.828125 0.921875 -2.140625 0.921875q-1.234375 0 -2.0625 -0.71875q-0.8125 -0.71875 -0.8125 -1.8125q0 -1.34375 1.0 -2.0625q1.0 -0.71875 2.875 -0.734375l1.046875 0l0 -0.484375q0 -0.578125 -0.3125 -0.921875q-0.296875 -0.359375 -0.9375 -0.359375q-0.578125 0 -0.90625 0.28125q-0.3125 0.265625 -0.3125 0.734375l-2.265625 0q0 -0.734375 0.453125 -1.359375q0.453125 -0.625 1.28125 -0.96875q0.828125 -0.359375 1.859375 -0.359375q1.5625 0 2.484375 0.78125q0.921875 0.78125 0.921875 2.203125l0 3.671875q0 1.203125 0.328125 1.8125l0 0.140625l-2.28125 0zm-1.859375 -1.578125q0.5 0 0.921875 -0.21875q0.421875 -0.21875 0.625 -0.59375l0 -1.453125l-0.84375 0q-1.703125 0 -1.8125 1.171875l0 0.125q0 0.421875 0.296875 0.703125q0.296875 0.265625 0.8125 0.265625zm5.21875 -2.71875q0 -1.9375 0.921875 -3.125q0.921875 -1.1875 2.5 -1.1875q1.390625 0 2.15625 0.953125l0.09375 -0.796875l2.046875 0l0 8.171875q0 1.109375 -0.5 1.921875q-0.5 0.828125 -1.421875 1.25q-0.90625 0.4375 -2.140625 0.4375q-0.921875 0 -1.8125 -0.375q-0.875 -0.359375 -1.328125 -0.953125l1.0 -1.375q0.84375 0.953125 2.046875 0.953125q0.890625 0 1.390625 -0.484375q0.5 -0.484375 0.5 -1.375l0 -0.453125q-0.78125 0.890625 -2.046875 0.890625q-1.53125 0 -2.46875 -1.1875q-0.9375 -1.203125 -0.9375 -3.171875l0 -0.09375zm2.25 0.171875q0 1.140625 0.453125 1.796875q0.46875 0.65625 1.28125 0.65625q1.03125 0 1.46875 -0.78125l0 -3.546875q-0.453125 -0.78125 -1.453125 -0.78125q-0.8125 0 -1.28125 0.671875q-0.46875 0.65625 -0.46875 1.984375zm11.1015625 4.28125q-1.859375 0 -3.03125 -1.140625q-1.171875 -1.140625 -1.171875 -3.046875l0 -0.21875q0 -1.265625 0.484375 -2.265625q0.5 -1.015625 1.40625 -1.546875q0.90625 -0.546875 2.0625 -0.546875q1.734375 0 2.71875 1.09375q1.0 1.09375 1.0 3.09375l0 0.921875l-5.375 0q0.109375 0.828125 0.65625 1.328125q0.546875 0.5 1.390625 0.5q1.3125 0 2.046875 -0.9375l1.109375 1.234375q-0.515625 0.71875 -1.390625 1.125q-0.859375 0.40625 -1.90625 0.40625zm-0.265625 -6.9375q-0.671875 0 -1.09375 0.453125q-0.40625 0.453125 -0.53125 1.296875l3.140625 0l0 -0.1875q-0.015625 -0.75 -0.40625 -1.15625q-0.390625 -0.40625 -1.109375 -0.40625z" fill-rule="nonzero"/><path fill="#2ccee2" d="m340.58005 99.33345l0 0c0 -3.142723 2.547699 -5.690407 5.690399 -5.690407l237.75305 0c1.5092163 0 2.956604 0.59952545 4.0237427 1.6666794c1.0671387 1.0671616 1.666687 2.514534 1.666687 4.0237274l0 22.760925c0 3.142723 -2.5476685 5.690399 -5.6904297 5.690399l-237.75305 0c-3.1427002 0 -5.690399 -2.547676 -5.690399 -5.690399z" fill-rule="evenodd"/><path fill="#ffffff" d="m438.8022 112.04516l-1.5625 0l0 3.46875l-1.953125 0l0 -9.46875l3.515625 0q1.6875 0 2.59375 0.75q0.921875 0.734375 0.921875 2.109375q0 0.96875 -0.421875 1.625q-0.421875 0.640625 -1.28125 1.015625l2.046875 3.875l0 0.09375l-2.09375 0l-1.765625 -3.46875zm-1.5625 -1.578125l1.578125 0q0.734375 0 1.140625 -0.375q0.40625 -0.375 0.40625 -1.03125q0 -0.671875 -0.390625 -1.046875q-0.375 -0.390625 -1.171875 -0.390625l-1.5625 0l0 2.84375zm12.255798 0.9375l-3.75 0l0 2.546875l4.40625 0l0 1.5625l-6.359375 0l0 -9.46875l6.34375 0l0 1.578125l-4.390625 0l0 2.25l3.75 0l0 1.53125zm9.293945 2.90625q-0.53125 0.640625 -1.5 0.984375q-0.953125 0.34375 -2.125 0.34375q-1.234375 0 -2.15625 -0.53125q-0.921875 -0.53125 -1.4375 -1.546875q-0.5 -1.03125 -0.515625 -2.40625l0 -0.65625q0 -1.421875 0.46875 -2.453125q0.484375 -1.03125 1.390625 -1.578125q0.90625 -0.5625 2.109375 -0.5625q1.6875 0 2.640625 0.8125q0.953125 0.796875 1.125 2.328125l-1.90625 0q-0.125 -0.8125 -0.578125 -1.1875q-0.4375 -0.375 -1.21875 -0.375q-1.0 0 -1.515625 0.75q-0.515625 0.75 -0.53125 2.21875l0 0.609375q0 1.484375 0.5625 2.25q0.578125 0.765625 1.671875 0.765625q1.09375 0 1.5625 -0.46875l0 -1.640625l-1.78125 0l0 -1.4375l3.734375 0l0 3.78125zm3.6566162 1.203125l-1.953125 0l0 -9.46875l1.953125 0l0 9.46875zm6.7289734 -2.484375q0 -0.5625 -0.390625 -0.84375q-0.390625 -0.296875 -1.40625 -0.625q-1.015625 -0.328125 -1.609375 -0.65625q-1.625 -0.875 -1.625 -2.34375q0 -0.765625 0.4375 -1.359375q0.4375 -0.609375 1.25 -0.953125q0.8125 -0.34375 1.8125 -0.34375q1.015625 0 1.8125 0.375q0.7968445 0.359375 1.2343445 1.03125q0.4375 0.671875 0.4375 1.53125l-1.9530945 0q0 -0.65625 -0.40625 -1.015625q-0.40625 -0.359375 -1.15625 -0.359375q-0.71875 0 -1.125 0.3125q-0.390625 0.296875 -0.390625 0.78125q0 0.46875 0.46875 0.78125q0.46875 0.3125 1.375 0.578125q1.671875 0.5 2.4218445 1.25q0.765625 0.734375 0.765625 1.84375q0 1.234375 -0.9374695 1.9375q-0.921875 0.6875 -2.5 0.6875q-1.09375 0 -2.0 -0.390625q-0.890625 -0.40625 -1.359375 -1.09375q-0.46875 -0.703125 -0.46875 -1.625l1.953125 0q0 1.578125 1.875 1.578125q0.703125 0 1.09375 -0.28125q0.390625 -0.296875 0.390625 -0.796875zm10.41214 -5.40625l-2.90625 0l0 7.890625l-1.953125 0l0 -7.890625l-2.859375 0l0 -1.578125l7.71875 0l0 1.578125zm6.8079834 3.78125l-3.75 0l0 2.546875l4.40625 0l0 1.5625l-6.359375 0l0 -9.46875l6.34375 0l0 1.578125l-4.390625 0l0 2.25l3.75 0l0 1.53125zm5.3095703 0.640625l-1.5625 0l0 3.46875l-1.953125 0l0 -9.46875l3.515625 0q1.6875 0 2.59375 0.75q0.921875 0.734375 0.921875 2.109375q0 0.96875 -0.421875 1.625q-0.421875 0.640625 -1.28125 1.015625l2.046875 3.875l0 0.09375l-2.09375 0l-1.765625 -3.46875zm-1.5625 -1.578125l1.578125 0q0.734375 0 1.140625 -0.375q0.40625 -0.375 0.40625 -1.03125q0 -0.671875 -0.390625 -1.046875q-0.375 -0.390625 -1.171875 -0.390625l-1.5625 0l0 2.84375z" fill-rule="nonzero"/><path fill="#c91313" d="m463.8504 51.682552l0 0c0 -3.8211327 3.0976257 -6.9187737 6.918762 -6.9187737l111.831726 0c1.835022 0 3.5947876 0.72893906 4.892334 2.0264626c1.2975464 1.2975235 2.0264893 3.0573387 2.0264893 4.892311l0 27.674267c0 3.8211288 -3.0976562 6.91877 -6.9188232 6.91877l-111.831726 0c-3.8211365 0 -6.918762 -3.097641 -6.918762 -6.91877z" fill-rule="evenodd"/><path fill="#ffffff" d="m513.94073 70.31969l-1.9530945 0l0 -4.0625l-3.8125 0l0 4.0625l-1.953125 0l0 -9.468754l1.953125 0l0 3.8281288l3.8125 0l0 -3.8281288l1.9530945 0l0 9.468754zm8.650024 -7.890629l-2.90625 0l0 7.890629l-1.953125 0l0 -7.890629l-2.859375 0l0 -1.578125l7.71875 0l0 1.578125zm8.349609 0l-2.90625 0l0 7.890629l-1.953125 0l0 -7.890629l-2.859375 0l0 -1.578125l7.71875 0l0 1.578125zm3.0579834 4.546879l0 3.34375l-1.953125 0l0 -9.468754l3.703125 0q1.0625 0 1.875 0.390625q0.8125 0.390625 1.25 1.109375q0.4375 0.71875 0.4375 1.625q0 1.3906288 -0.953125 2.2031288q-0.953125 0.796875 -2.640625 0.796875l-1.71875 0zm0 -1.578125l1.75 0q0.765625 0 1.171875 -0.359375q0.40625 -0.375 0.40625 -1.0468788q0 -0.6875 -0.40625 -1.109375q-0.40625 -0.4375 -1.125 -0.453125l-1.796875 0l0 2.9687538zm11.565674 2.4375q0 -0.5625 -0.390625 -0.84375q-0.390625 -0.296875 -1.40625 -0.625q-1.015625 -0.328125 -1.609375 -0.65625q-1.625 -0.875 -1.625 -2.3437538q0 -0.765625 0.4375 -1.359375q0.4375 -0.609375 1.25 -0.953125q0.8125 -0.34375 1.8125 -0.34375q1.015625 0 1.8125 0.375q0.796875 0.359375 1.234375 1.03125q0.4375 0.671875 0.4375 1.53125l-1.953125 0q0 -0.65625 -0.40625 -1.015625q-0.40625 -0.359375 -1.15625 -0.359375q-0.71875 0 -1.125 0.3125q-0.390625 0.296875 -0.390625 0.78125q0 0.46875 0.46875 0.7812538q0.46875 0.3125 1.375 0.578125q1.671875 0.5 2.421875 1.25q0.765625 0.734375 0.765625 1.84375q0 1.234375 -0.9375 1.9375q-0.921875 0.6875 -2.5 0.6875q-1.09375 0 -2.0 -0.390625q-0.890625 -0.40625 -1.359375 -1.09375q-0.46875 -0.703125 -0.46875 -1.625l1.953125 0q0 1.578125 1.875 1.578125q0.703125 0 1.09375 -0.28125q0.390625 -0.296875 0.390625 -0.796875z" fill-rule="nonzero"/><path fill="#000000" fill-opacity="0.0" d="m380.33035 7.4064207l173.35434 0l0 34.14173l-173.35434 0z" fill-rule="evenodd"/><path fill="#980000" d="m453.46378 31.04517l3.015625 -9.984375l3.046875 0l-4.625 13.265625l-2.84375 0l-4.609375 -13.265625l3.03125 0l2.984375 9.984375zm10.869507 -9.984375l3.40625 9.625l3.390625 -9.625l3.59375 0l0 13.265625l-2.75 0l0 -3.625l0.28125 -6.265625l-3.578125 9.890625l-1.875 0l-3.578125 -9.875l0.28125 6.25l0 3.625l-2.734375 0l0 -13.265625l3.5625 0zm21.592438 13.265625l-9.09375 0l0 -1.796875l4.28125 -4.578125q0.890625 -0.96875 1.3125 -1.6875q0.421875 -0.71875 0.421875 -1.359375q0 -0.890625 -0.453125 -1.390625q-0.4375 -0.515625 -1.265625 -0.515625q-0.890625 0 -1.40625 0.625q-0.515625 0.609375 -0.515625 1.609375l-2.640625 0q0 -1.203125 0.578125 -2.203125q0.578125 -1.015625 1.625 -1.578125q1.0625 -0.578125 2.40625 -0.578125q2.046875 0 3.171875 0.984375q1.140625 0.984375 1.140625 2.78125q0 0.984375 -0.515625 2.015625q-0.5 1.015625 -1.734375 2.375l-3.015625 3.171875l5.703125 0l0 2.125z" fill-rule="nonzero"/><path fill="#1c4587" d="m183.77272 457.4795l0 0c0 -4.5691223 3.70401 -8.273132 8.273132 -8.273132l236.30412 0c2.1941833 0 4.2984924 0.87164307 5.850006 2.4231567c1.5515137 1.5515137 2.4231262 3.6558228 2.4231262 5.8499756l0 33.091553c0 4.5691223 -3.70401 8.273102 -8.273132 8.273102l-236.30412 0l0 0c-4.5691223 0 -8.273132 -3.7039795 -8.273132 -8.273102z" fill-rule="evenodd"/><path fill="#ffffff" d="m285.88153 470.38525l0 -11.375l3.5 0q1.5 0 2.6875 0.671875q1.1875 0.671875 1.84375 1.921875q0.671875 1.25 0.671875 2.828125l0 0.53125q0 1.578125 -0.65625 2.8125q-0.65625 1.234375 -1.84375 1.921875q-1.1875 0.671875 -2.671875 0.6875l-3.53125 0zm2.34375 -9.484375l0 7.59375l1.140625 0q1.375 0 2.09375 -0.890625q0.734375 -0.90625 0.75 -2.578125l0 -0.59375q0 -1.734375 -0.71875 -2.625q-0.71875 -0.90625 -2.109375 -0.90625l-1.15625 0zm7.5546875 5.171875q0 -1.25 0.484375 -2.234375q0.484375 -0.984375 1.390625 -1.515625q0.921875 -0.546875 2.125 -0.546875q1.703125 0 2.78125 1.046875q1.09375 1.046875 1.21875 2.84375l0.015625 0.578125q0 1.9375 -1.09375 3.125q-1.078125 1.171875 -2.90625 1.171875q-1.828125 0 -2.921875 -1.171875q-1.09375 -1.171875 -1.09375 -3.1875l0 -0.109375zm2.265625 0.171875q0 1.203125 0.453125 1.84375q0.453125 0.625 1.296875 0.625q0.8125 0 1.265625 -0.625q0.46875 -0.625 0.46875 -2.015625q0 -1.171875 -0.46875 -1.8125q-0.453125 -0.65625 -1.28125 -0.65625q-0.828125 0 -1.28125 0.640625q-0.453125 0.640625 -0.453125 2.0zm10.65625 2.46875q0.625 0 1.015625 -0.34375q0.390625 -0.34375 0.40625 -0.90625l2.109375 0q0 0.859375 -0.46875 1.578125q-0.453125 0.703125 -1.265625 1.109375q-0.796875 0.390625 -1.765625 0.390625q-1.8125 0 -2.859375 -1.15625q-1.046875 -1.15625 -1.046875 -3.1875l0 -0.140625q0 -1.953125 1.03125 -3.109375q1.046875 -1.171875 2.859375 -1.171875q1.59375 0 2.546875 0.90625q0.953125 0.890625 0.96875 2.390625l-2.109375 0q-0.015625 -0.65625 -0.40625 -1.0625q-0.390625 -0.40625 -1.03125 -0.40625q-0.796875 0 -1.203125 0.578125q-0.390625 0.5625 -0.390625 1.859375l0 0.234375q0 1.296875 0.390625 1.875q0.40625 0.5625 1.21875 0.5625zm7.8905945 -1.71875l-0.8125 0.8125l0 2.578125l-2.2499695 0l0 -12.0l2.2499695 0l0 6.640625l0.4375 -0.5625l2.171875 -2.53125l2.703125 0l-3.046875 3.515625l3.3125 4.9375l-2.59375 0l-2.171875 -3.390625zm9.21875 3.546875q-1.859375 0 -3.03125 -1.140625q-1.171875 -1.140625 -1.171875 -3.046875l0 -0.21875q0 -1.265625 0.484375 -2.265625q0.5 -1.015625 1.40625 -1.546875q0.90625 -0.546875 2.0625 -0.546875q1.734375 0 2.71875 1.09375q1.0 1.09375 1.0 3.09375l0 0.921875l-5.375 0q0.109375 0.828125 0.65625 1.328125q0.546875 0.5 1.390625 0.5q1.3125 0 2.046875 -0.9375l1.109375 1.234375q-0.515625 0.71875 -1.390625 1.125q-0.859375 0.40625 -1.90625 0.40625zm-0.265625 -6.9375q-0.671875 0 -1.09375 0.453125q-0.40625 0.453125 -0.53125 1.296875l3.140625 0l0 -0.1875q-0.015625 -0.75 -0.40625 -1.15625q-0.390625 -0.40625 -1.109375 -0.40625zm9.7734375 0.4375q-0.46875 -0.0625 -0.8125 -0.0625q-1.28125 0 -1.6875 0.875l0 5.53125l-2.25 0l0 -8.453125l2.125 0l0.0625 1.0q0.6875 -1.15625 1.890625 -1.15625q0.375 0 0.703125 0.09375l-0.03125 2.171875z" fill-rule="nonzero"/><path fill="#ffffff" d="m271.4831 483.94775q0 1.6875 -0.59375 2.953125q-0.59375 1.265625 -1.703125 1.953125q-1.09375 0.6875 -2.53125 0.6875q-1.40625 0 -2.515625 -0.671875q-1.109375 -0.6875 -1.71875 -1.953125q-0.609375 -1.265625 -0.625 -2.90625l0 -0.5625q0 -1.671875 0.609375 -2.953125q0.609375 -1.28125 1.703125 -1.953125q1.109375 -0.6875 2.53125 -0.6875q1.421875 0 2.53125 0.6875q1.109375 0.671875 1.703125 1.953125q0.609375 1.28125 0.609375 2.953125l0 0.5zm-2.375 -0.515625q0 -1.78125 -0.640625 -2.703125q-0.640625 -0.9375 -1.828125 -0.9375q-1.171875 0 -1.8125 0.921875q-0.640625 0.90625 -0.65625 2.6875l0 0.546875q0 1.75 0.640625 2.71875q0.640625 0.953125 1.84375 0.953125q1.1875 0 1.8125 -0.921875q0.640625 -0.9375 0.640625 -2.703125l0 -0.5625zm8.6875 -0.390625q-0.46875 -0.0625 -0.8125 -0.0625q-1.28125 0 -1.6875 0.875l0 5.53125l-2.25 0l0 -8.453125l2.125 0l0.0625 1.0q0.6875 -1.15625 1.890625 -1.15625q0.375 0 0.703125 0.09375l-0.03125 2.171875zm4.453125 4.671875q0.625 0 1.015625 -0.34375q0.390625 -0.34375 0.40625 -0.90625l2.109375 0q0 0.859375 -0.46875 1.578125q-0.453125 0.703125 -1.265625 1.109375q-0.796875 0.390625 -1.765625 0.390625q-1.8125 0 -2.859375 -1.15625q-1.046875 -1.15625 -1.046875 -3.1875l0 -0.140625q0 -1.953125 1.03125 -3.109375q1.046875 -1.171875 2.859375 -1.171875q1.59375 0 2.546875 0.90625q0.953125 0.890625 0.96875 2.390625l-2.109375 0q-0.015625 -0.65625 -0.40625 -1.0625q-0.390625 -0.40625 -1.03125 -0.40625q-0.796875 0 -1.203125 0.578125q-0.390625 0.5625 -0.390625 1.859375l0 0.234375q0 1.296875 0.390625 1.875q0.40625 0.5625 1.21875 0.5625zm7.03125 -5.859375q0.890625 -1.078125 2.25 -1.078125q2.75 0 2.796875 3.1875l0 5.421875l-2.265625 0l0 -5.359375q0 -0.71875 -0.3125 -1.0625q-0.3125 -0.359375 -1.03125 -0.359375q-1.0 0 -1.4375 0.765625l0 6.015625l-2.265625 0l0 -12.0l2.265625 0l0 4.46875zm10.640625 7.6875q-1.859375 0 -3.03125 -1.140625q-1.171875 -1.140625 -1.171875 -3.046875l0 -0.21875q0 -1.265625 0.484375 -2.265625q0.5 -1.015625 1.40625 -1.546875q0.90625 -0.546875 2.0625 -0.546875q1.734375 0 2.71875 1.09375q1.0 1.09375 1.0 3.09375l0 0.921875l-5.375 0q0.109375 0.828125 0.65625 1.328125q0.546875 0.5 1.390625 0.5q1.3125 0 2.046875 -0.9375l1.109375 1.234375q-0.515625 0.71875 -1.390625 1.125q-0.859375 0.40625 -1.90625 0.40625zm-0.265625 -6.9375q-0.671875 0 -1.09375 0.453125q-0.40625 0.453125 -0.53125 1.296875l3.140625 0l0 -0.1875q-0.015625 -0.75 -0.40625 -1.15625q-0.390625 -0.40625 -1.109375 -0.40625zm9.6015625 4.4375q0 -0.40625 -0.421875 -0.640625q-0.40625 -0.25 -1.3125 -0.4375q-3.015625 -0.625 -3.015625 -2.5625q0 -1.125 0.9375 -1.875q0.9375 -0.75 2.4375 -0.75q1.609375 0 2.578125 0.765625q0.96875 0.75 0.96875 1.953125l-2.265625 0q0 -0.484375 -0.3125 -0.796875q-0.3125 -0.3125 -0.96875 -0.3125q-0.578125 0 -0.890625 0.265625q-0.3125 0.25 -0.3125 0.640625q0 0.375 0.359375 0.609375q0.359375 0.234375 1.203125 0.40625q0.84375 0.15625 1.421875 0.375q1.78125 0.65625 1.78125 2.265625q0 1.15625 -1.0 1.875q-0.984375 0.71875 -2.546875 0.71875q-1.0625 0 -1.890625 -0.375q-0.828125 -0.390625 -1.296875 -1.046875q-0.46875 -0.65625 -0.46875 -1.421875l2.140625 0q0.03125 0.59375 0.4375 0.921875q0.421875 0.3125 1.125 0.3125q0.640625 0 0.96875 -0.234375q0.34375 -0.25 0.34375 -0.65625zm6.351532 -8.1875l0 2.078125l1.4375 0l0 1.65625l-1.4375 0l0 4.21875q0 0.46875 0.171875 0.671875q0.1875 0.203125 0.6875 0.203125q0.375 0 0.671875 -0.0625l0 1.71875q-0.671875 0.203125 -1.375 0.203125q-2.3749695 0 -2.4218445 -2.40625l0 -4.546875l-1.234375 0l0 -1.65625l1.234375 0l0 -2.078125l2.2655945 0zm7.453125 4.1875q-0.46875 -0.0625 -0.8125 -0.0625q-1.28125 0 -1.6875 0.875l0 5.53125l-2.25 0l0 -8.453125l2.125 0l0.0625 1.0q0.6875 -1.15625 1.890625 -1.15625q0.375 0 0.703125 0.09375l-0.03125 2.171875zm5.7421875 6.34375q-0.15625 -0.3125 -0.21875 -0.765625q-0.828125 0.921875 -2.140625 0.921875q-1.234375 0 -2.0625 -0.71875q-0.8125 -0.71875 -0.8125 -1.8125q0 -1.34375 1.0 -2.0625q1.0 -0.71875 2.875 -0.734375l1.046875 0l0 -0.484375q0 -0.578125 -0.3125 -0.921875q-0.296875 -0.359375 -0.9375 -0.359375q-0.578125 0 -0.90625 0.28125q-0.3125 0.265625 -0.3125 0.734375l-2.265625 0q0 -0.734375 0.453125 -1.359375q0.453125 -0.625 1.28125 -0.96875q0.828125 -0.359375 1.859375 -0.359375q1.5625 0 2.484375 0.78125q0.921875 0.78125 0.921875 2.203125l0 3.671875q0 1.203125 0.328125 1.8125l0 0.140625l-2.28125 0zm-1.859375 -1.578125q0.5 0 0.921875 -0.21875q0.421875 -0.21875 0.625 -0.59375l0 -1.453125l-0.84375 0q-1.703125 0 -1.8125 1.171875l0 0.125q0 0.421875 0.296875 0.703125q0.296875 0.265625 0.8125 0.265625zm8.25 -8.953125l0 2.078125l1.4375 0l0 1.65625l-1.4375 0l0 4.21875q0 0.46875 0.171875 0.671875q0.1875 0.203125 0.6875 0.203125q0.375 0 0.671875 -0.0625l0 1.71875q-0.671875 0.203125 -1.375 0.203125q-2.375 0 -2.421875 -2.40625l0 -4.546875l-1.234375 0l0 -1.65625l1.234375 0l0 -2.078125l2.265625 0zm5.078125 10.53125l-2.265625 0l0 -8.453125l2.265625 0l0 8.453125zm-2.390625 -10.640625q0 -0.515625 0.328125 -0.84375q0.34375 -0.328125 0.9375 -0.328125q0.578125 0 0.921875 0.328125q0.34375 0.328125 0.34375 0.84375q0 0.515625 -0.359375 0.84375q-0.34375 0.328125 -0.921875 0.328125q-0.5625 0 -0.90625 -0.328125q-0.34375 -0.328125 -0.34375 -0.84375zm3.8984375 6.328125q0 -1.25 0.484375 -2.234375q0.484375 -0.984375 1.390625 -1.515625q0.921875 -0.546875 2.125 -0.546875q1.703125 0 2.78125 1.046875q1.09375 1.046875 1.21875 2.84375l0.015625 0.578125q0 1.9375 -1.09375 3.125q-1.078125 1.171875 -2.90625 1.171875q-1.828125 0 -2.921875 -1.171875q-1.09375 -1.171875 -1.09375 -3.1875l0 -0.109375zm2.265625 0.171875q0 1.203125 0.453125 1.84375q0.453125 0.625 1.296875 0.625q0.8125 0 1.265625 -0.625q0.46875 -0.625 0.46875 -2.015625q0 -1.171875 -0.46875 -1.8125q-0.453125 -0.65625 -1.28125 -0.65625q-0.828125 0 -1.28125 0.640625q-0.453125 0.640625 -0.453125 2.0zm9.21875 -4.3125l0.0625 0.96875q0.90625 -1.125 2.4375 -1.125q1.34375 0 2.0 0.796875q0.65625 0.78125 0.671875 2.34375l0 5.46875l-2.265625 0l0 -5.40625q0 -0.71875 -0.3125 -1.046875q-0.3125 -0.328125 -1.03125 -0.328125q-0.953125 0 -1.4375 0.8125l0 5.96875l-2.25 0l0 -8.453125l2.125 0z" fill-rule="nonzero"/><path fill="#4a86e8" d="m183.77165 416.3177l0 0c0 -3.1427002 2.5476837 -5.690399 5.690399 -5.690399l237.75307 0c1.5091858 0 2.956543 0.5995178 4.023712 1.666687c1.0671692 1.0671692 1.666687 2.5145264 1.666687 4.023712l0 22.760925c0 3.1427307 -2.547699 5.6904297 -5.690399 5.6904297l-237.75307 0c-3.1427155 0 -5.690399 -2.547699 -5.690399 -5.6904297z" fill-rule="evenodd"/><path fill="#ffffff" d="m287.25266 430.5738q0 -0.671875 -0.46875 -1.015625q-0.46875 -0.359375 -1.6875 -0.75q-1.21875 -0.40625 -1.9375 -0.78125q-1.9375 -1.046875 -1.9375 -2.828125q0 -0.921875 0.515625 -1.640625q0.53125 -0.71875 1.5 -1.125q0.96875 -0.40625 2.1875 -0.40625q1.21875 0 2.171875 0.4375q0.953125 0.4375 1.46875 1.25q0.53125 0.796875 0.53125 1.828125l-2.34375 0q0 -0.78125 -0.5 -1.21875q-0.484375 -0.4375 -1.375 -0.4375q-0.859375 0 -1.34375 0.375q-0.46875 0.359375 -0.46875 0.953125q0 0.546875 0.5625 0.921875q0.5625 0.375 1.640625 0.703125q2.0 0.609375 2.90625 1.5q0.921875 0.890625 0.921875 2.21875q0 1.46875 -1.125 2.3125q-1.109375 0.84375 -3.0 0.84375q-1.3125 0 -2.390625 -0.484375q-1.078125 -0.484375 -1.640625 -1.3125q-0.5625 -0.84375 -0.5625 -1.9375l2.34375 0q0 1.875 2.25 1.875q0.84375 0 1.3125 -0.328125q0.46875 -0.34375 0.46875 -0.953125zm6.4921875 -7.546875l0 2.078125l1.4375 0l0 1.65625l-1.4375 0l0 4.21875q0 0.46875 0.171875 0.671875q0.1875 0.203125 0.6875 0.203125q0.375 0 0.671875 -0.0625l0 1.71875q-0.671875 0.203125 -1.375 0.203125q-2.375 0 -2.421875 -2.40625l0 -4.546875l-1.234375 0l0 -1.65625l1.234375 0l0 -2.078125l2.265625 0zm2.109375 6.21875q0 -1.25 0.484375 -2.234375q0.484375 -0.984375 1.390625 -1.515625q0.921875 -0.546875 2.125 -0.546875q1.703125 0 2.78125 1.046875q1.09375 1.046875 1.21875 2.84375l0.015625 0.578125q0 1.9375 -1.09375 3.125q-1.078125 1.171875 -2.90625 1.171875q-1.828125 0 -2.921875 -1.171875q-1.09375 -1.171875 -1.09375 -3.1875l0 -0.109375zm2.265625 0.171875q0 1.203125 0.453125 1.84375q0.453125 0.625 1.296875 0.625q0.8125 0 1.265625 -0.625q0.46875 -0.625 0.46875 -2.015625q0 -1.171875 -0.46875 -1.8125q-0.453125 -0.65625 -1.28125 -0.65625q-0.828125 0 -1.28125 0.640625q-0.453125 0.640625 -0.453125 2.0zm11.890625 -2.203125q-0.46875 -0.0625 -0.8125 -0.0625q-1.28125 0 -1.6875 0.875l0 5.53125l-2.25 0l0 -8.453125l2.125 0l0.0625 1.0q0.6875 -1.15625 1.890625 -1.15625q0.375 0 0.703125 0.09375l-0.03125 2.171875zm5.7421875 6.34375q-0.15625 -0.3125 -0.21875 -0.765625q-0.828125 0.921875 -2.140625 0.921875q-1.234375 0 -2.0625 -0.71875q-0.8125 -0.71875 -0.8125 -1.8125q0 -1.34375 1.0 -2.0625q1.0 -0.71875 2.875 -0.734375l1.046875 0l0 -0.484375q0 -0.578125 -0.3125 -0.921875q-0.296875 -0.359375 -0.9375 -0.359375q-0.578125 0 -0.90625 0.28125q-0.3125 0.265625 -0.3125 0.734375l-2.265625 0q0 -0.734375 0.453125 -1.359375q0.453125 -0.625 1.28125 -0.96875q0.828125 -0.359375 1.859375 -0.359375q1.5625 0 2.484375 0.78125q0.921875 0.78125 0.921875 2.203125l0 3.671875q0 1.203125 0.328125 1.8125l0 0.140625l-2.28125 0zm-1.859375 -1.578125q0.5 0 0.921875 -0.21875q0.421875 -0.21875 0.625 -0.59375l0 -1.453125l-0.84375 0q-1.703125 0 -1.8125 1.171875l0 0.125q0 0.421875 0.296875 0.703125q0.296875 0.265625 0.8125 0.265625zm5.21875 -2.71875q0 -1.9375 0.921875 -3.125q0.921875 -1.1875 2.5 -1.1875q1.390625 0 2.15625 0.953125l0.09375 -0.796875l2.046875 0l0 8.171875q0 1.109375 -0.5 1.921875q-0.5 0.828125 -1.421875 1.25q-0.90625 0.4375 -2.140625 0.4375q-0.921875 0 -1.8125 -0.375q-0.875 -0.359375 -1.328125 -0.953125l1.0 -1.375q0.84375 0.953125 2.046875 0.953125q0.890625 0 1.390625 -0.484375q0.5 -0.484375 0.5 -1.375l0 -0.453125q-0.78125 0.890625 -2.046875 0.890625q-1.53125 0 -2.46875 -1.1875q-0.9375 -1.203125 -0.9375 -3.171875l0 -0.09375zm2.25 0.171875q0 1.140625 0.453125 1.796875q0.46875 0.65625 1.28125 0.65625q1.03125 0 1.46875 -0.78125l0 -3.546875q-0.453125 -0.78125 -1.453125 -0.78125q-0.8125 0 -1.28125 0.671875q-0.46875 0.65625 -0.46875 1.984375zm11.1015625 4.28125q-1.859375 0 -3.03125 -1.140625q-1.171875 -1.140625 -1.171875 -3.046875l0 -0.21875q0 -1.265625 0.484375 -2.265625q0.5 -1.015625 1.40625 -1.546875q0.90625 -0.546875 2.0625 -0.546875q1.734375 0 2.71875 1.09375q1.0 1.09375 1.0 3.09375l0 0.921875l-5.375 0q0.109375 0.828125 0.65625 1.328125q0.546875 0.5 1.390625 0.5q1.3125 0 2.046875 -0.9375l1.109375 1.234375q-0.515625 0.71875 -1.390625 1.125q-0.859375 0.40625 -1.90625 0.40625zm-0.265625 -6.9375q-0.671875 0 -1.09375 0.453125q-0.40625 0.453125 -0.53125 1.296875l3.140625 0l0 -0.1875q-0.015625 -0.75 -0.40625 -1.15625q-0.390625 -0.40625 -1.109375 -0.40625z" fill-rule="nonzero"/><path fill="#2ccee2" d="m185.83464 375.23502l0 0c0 -3.1427307 2.5476837 -5.690399 5.6904144 -5.690399l233.62708 0c1.5091858 0 2.956543 0.5995178 4.023712 1.666687c1.0671692 1.0671387 1.666687 2.5145264 1.666687 4.023712l0 22.760925c0 3.1427307 -2.547699 5.690399 -5.690399 5.690399l-233.62708 0c-3.1427307 0 -5.6904144 -2.5476685 -5.6904144 -5.690399z" fill-rule="evenodd"/><path fill="#ffffff" d="m299.65704 388.25925q-0.109375 1.53125 -1.125 2.40625q-1.015625 0.875 -2.6875 0.875q-1.8125 0 -2.859375 -1.21875q-1.046875 -1.234375 -1.046875 -3.375l0 -0.578125q0 -1.359375 0.46875 -2.40625q0.484375 -1.046875 1.375 -1.59375q0.90625 -0.5625 2.09375 -0.5625q1.640625 0 2.640625 0.890625q1.0 0.875 1.15625 2.453125l-1.953125 0q-0.0625 -0.90625 -0.515625 -1.3125q-0.4375 -0.421875 -1.328125 -0.421875q-0.984375 0 -1.46875 0.703125q-0.484375 0.6875 -0.5 2.15625l0 0.71875q0 1.53125 0.46875 2.25q0.46875 0.703125 1.46875 0.703125q0.90625 0 1.34375 -0.40625q0.453125 -0.421875 0.515625 -1.28125l1.953125 0zm9.064301 -1.359375q0 1.390625 -0.5 2.453125q-0.484375 1.046875 -1.40625 1.625q-0.921875 0.5625 -2.109375 0.5625q-1.1875 0 -2.109375 -0.5625q-0.921875 -0.5625 -1.4375 -1.609375q-0.5 -1.0625 -0.5 -2.421875l0 -0.46875q0 -1.40625 0.5 -2.46875q0.5 -1.0625 1.421875 -1.625q0.921875 -0.578125 2.109375 -0.578125q1.1875 0 2.109375 0.578125q0.921875 0.5625 1.421875 1.625q0.5 1.0625 0.5 2.453125l0 0.4375zm-1.96875 -0.4375q0 -1.484375 -0.546875 -2.25q-0.53125 -0.78125 -1.515625 -0.78125q-0.984375 0 -1.515625 0.765625q-0.53125 0.75 -0.546875 2.234375l0 0.46875q0 1.4375 0.53125 2.25q0.546875 0.796875 1.546875 0.796875q0.984375 0 1.5 -0.765625q0.53125 -0.78125 0.546875 -2.25l0 -0.46875zm6.9052734 1.484375l-1.5625 0l0 3.46875l-1.953125 0l0 -9.46875l3.515625 0q1.6875 0 2.59375 0.75q0.921875 0.734375 0.921875 2.109375q0 0.96875 -0.421875 1.625q-0.421875 0.640625 -1.28125 1.015625l2.046875 3.875l0 0.09375l-2.09375 0l-1.765625 -3.46875zm-1.5625 -1.578125l1.578125 0q0.734375 0 1.140625 -0.375q0.40625 -0.375 0.40625 -1.03125q0 -0.671875 -0.390625 -1.046875q-0.375 -0.390625 -1.171875 -0.390625l-1.5625 0l0 2.84375zm12.255798 0.9375l-3.75 0l0 2.546875l4.40625 0l0 1.5625l-6.359375 0l0 -9.46875l6.34375 0l0 1.578125l-4.390625 0l0 2.25l3.75 0l0 1.53125z" fill-rule="nonzero"/><path fill="#c91313" d="m183.77277 328.94107l0 0c0 -3.821106 3.097641 -6.918762 6.9187775 -6.918762l235.29631 0c1.8349609 0 3.5947876 0.7289429 4.8923035 2.0264587c1.2975159 1.2975159 2.0264587 3.0573425 2.0264587 4.8923035l0 27.674286c0 3.8211365 -3.0976257 6.918762 -6.918762 6.918762l-235.29631 0c-3.8211365 0 -6.9187775 -3.0976257 -6.9187775 -6.918762z" fill-rule="evenodd"/><path fill="#ffffff" d="m243.6139 347.57822l-1.953125 0l0 -4.0625l-3.8125 0l0 4.0625l-1.953125 0l0 -9.46875l1.953125 0l0 3.828125l3.8125 0l0 -3.828125l1.953125 0l0 9.46875zm8.649979 -7.890625l-2.90625 0l0 7.890625l-1.953125 0l0 -7.890625l-2.859375 0l0 -1.578125l7.71875 0l0 1.578125zm8.34967 0l-2.90625 0l0 7.890625l-1.9531403 0l0 -7.890625l-2.859375 0l0 -1.578125l7.7187653 0l0 1.578125zm3.0579834 4.546875l0 3.34375l-1.953125 0l0 -9.46875l3.703125 0q1.0625 0 1.875 0.390625q0.8125 0.390625 1.25 1.109375q0.4375 0.71875 0.4375 1.625q0 1.390625 -0.953125 2.203125q-0.953125 0.796875 -2.640625 0.796875l-1.71875 0zm0 -1.578125l1.75 0q0.765625 0 1.171875 -0.359375q0.40625 -0.375 0.40625 -1.046875q0 -0.6875 -0.40625 -1.109375q-0.40625 -0.4375 -1.125 -0.453125l-1.796875 0l0 2.96875zm11.565643 2.4375q0 -0.5625 -0.390625 -0.84375q-0.390625 -0.296875 -1.40625 -0.625q-1.015625 -0.328125 -1.609375 -0.65625q-1.625 -0.875 -1.625 -2.34375q0 -0.765625 0.4375 -1.359375q0.4375 -0.609375 1.25 -0.953125q0.8125 -0.34375 1.8125 -0.34375q1.015625 0 1.8125 0.375q0.796875 0.359375 1.234375 1.03125q0.4375 0.671875 0.4375 1.53125l-1.953125 0q0 -0.65625 -0.40625 -1.015625q-0.40625 -0.359375 -1.15625 -0.359375q-0.71875 0 -1.125 0.3125q-0.390625 0.296875 -0.390625 0.78125q0 0.46875 0.46875 0.78125q0.46875 0.3125 1.375 0.578125q1.671875 0.5 2.421875 1.25q0.765625 0.734375 0.765625 1.84375q0 1.234375 -0.9375 1.9375q-0.921875 0.6875 -2.5 0.6875q-1.09375 0 -2.0 -0.390625q-0.890625 -0.40625 -1.359375 -1.09375q-0.46875 -0.703125 -0.46875 -1.625l1.953125 0q0 1.578125 1.875 1.578125q0.703125 0 1.09375 -0.28125q0.390625 -0.296875 0.390625 -0.796875zm3.7402954 3.296875l-1.390625 0l3.484375 -10.28125l1.390625 0l-3.484375 10.28125zm9.431671 -3.296875q0 -0.5625 -0.390625 -0.84375q-0.390625 -0.296875 -1.40625 -0.625q-1.015625 -0.328125 -1.609375 -0.65625q-1.625 -0.875 -1.625 -2.34375q0 -0.765625 0.4375 -1.359375q0.4375 -0.609375 1.25 -0.953125q0.8125 -0.34375 1.8125 -0.34375q1.015625 0 1.8125 0.375q0.796875 0.359375 1.234375 1.03125q0.4375 0.671875 0.4375 1.53125l-1.953125 0q0 -0.65625 -0.40625 -1.015625q-0.40625 -0.359375 -1.15625 -0.359375q-0.71875 0 -1.125 0.3125q-0.390625 0.296875 -0.390625 0.78125q0 0.46875 0.46875 0.78125q0.46875 0.3125 1.375 0.578125q1.671875 0.5 2.421875 1.25q0.765625 0.734375 0.765625 1.84375q0 1.234375 -0.9375 1.9375q-0.921875 0.6875 -2.5 0.6875q-1.09375 0 -2.0 -0.390625q-0.890625 -0.40625 -1.359375 -1.09375q-0.46875 -0.703125 -0.46875 -1.625l1.953125 0q0 1.578125 1.875 1.578125q0.703125 0 1.09375 -0.28125q0.390625 -0.296875 0.390625 -0.796875zm8.19342 0q0 -0.5625 -0.390625 -0.84375q-0.390625 -0.296875 -1.40625 -0.625q-1.015625 -0.328125 -1.609375 -0.65625q-1.625 -0.875 -1.625 -2.34375q0 -0.765625 0.4375 -1.359375q0.4375 -0.609375 1.25 -0.953125q0.8125 -0.34375 1.8125 -0.34375q1.015625 0 1.8125 0.375q0.796875 0.359375 1.234375 1.03125q0.4375 0.671875 0.4375 1.53125l-1.953125 0q0 -0.65625 -0.40625 -1.015625q-0.40625 -0.359375 -1.15625 -0.359375q-0.71875 0 -1.125 0.3125q-0.390625 0.296875 -0.390625 0.78125q0 0.46875 0.46875 0.78125q0.46875 0.3125 1.375 0.578125q1.671875 0.5 2.421875 1.25q0.765625 0.734375 0.765625 1.84375q0 1.234375 -0.9375 1.9375q-0.921875 0.6875 -2.5 0.6875q-1.09375 0 -2.0 -0.390625q-0.890625 -0.40625 -1.359375 -1.09375q-0.46875 -0.703125 -0.46875 -1.625l1.953125 0q0 1.578125 1.875 1.578125q0.703125 0 1.09375 -0.28125q0.390625 -0.296875 0.390625 -0.796875zm5.2246704 0.921875l4.140625 0l0 1.5625l-6.09375 0l0 -9.46875l1.953125 0l0 7.90625zm15.333099 -6.328125l-2.90625 0l0 7.890625l-1.9530945 0l0 -7.890625l-2.859375 0l0 -1.578125l7.7187195 0l0 1.578125zm3.6504517 8.015625q-1.546875 0 -2.53125 -0.9375q-0.96875 -0.953125 -0.96875 -2.53125l0 -0.1875q0 -1.0625 0.40625 -1.890625q0.40625 -0.84375 1.15625 -1.296875q0.765625 -0.453125 1.71875 -0.453125q1.453125 0 2.28125 0.921875q0.828125 0.90625 0.828125 2.578125l0 0.765625l-4.484375 0q0.09375 0.6875 0.546875 1.109375q0.46875 0.40625 1.171875 0.40625q1.078125 0 1.6875 -0.78125l0.921875 1.03125q-0.421875 0.59375 -1.140625 0.9375q-0.71875 0.328125 -1.59375 0.328125zm-0.21875 -5.78125q-0.5625 0 -0.90625 0.390625q-0.34375 0.375 -0.453125 1.078125l2.625 0l0 -0.15625q-0.015625 -0.625 -0.34375 -0.96875q-0.328125 -0.34375 -0.921875 -0.34375zm8.126099 0.375q-0.375 -0.046875 -0.671875 -0.046875q-1.0625 0 -1.390625 0.71875l0 4.609375l-1.890625 0l0 -7.046875l1.78125 0l0.046875 0.84375q0.578125 -0.96875 1.578125 -0.96875q0.3125 0 0.578125 0.078125l-0.03125 1.8125zm2.6738892 -1.765625l0.0625 0.796875q0.75 -0.921875 2.015625 -0.921875q1.359375 0 1.875 1.078125q0.734375 -1.078125 2.109375 -1.078125q1.15625 0 1.703125 0.671875q0.5625 0.65625 0.5625 2.0l0 4.5l-1.890625 0l0 -4.484375q0 -0.609375 -0.234375 -0.875q-0.234375 -0.28125 -0.8125 -0.28125q-0.859375 0 -1.171875 0.8125l0 4.828125l-1.875 0l0 -4.484375q0 -0.609375 -0.25 -0.875q-0.234375 -0.28125 -0.8125 -0.28125q-0.796875 0 -1.15625 0.65625l0 4.984375l-1.890625 0l0 -7.046875l1.765625 0zm11.757202 7.046875l-1.890625 0l0 -7.046875l1.890625 0l0 7.046875zm-2.0 -8.859375q0 -0.421875 0.28125 -0.6875q0.296875 -0.28125 0.78125 -0.28125q0.484375 0 0.765625 0.28125q0.28125 0.265625 0.28125 0.6875q0 0.421875 -0.296875 0.703125q-0.28125 0.265625 -0.765625 0.265625q-0.46875 0 -0.765625 -0.265625q-0.28125 -0.28125 -0.28125 -0.703125zm5.283783 1.8125l0.0625 0.8125q0.75 -0.9375 2.015625 -0.9375q1.125 0 1.671875 0.65625q0.546875 0.65625 0.5625 1.96875l0 4.546875l-1.890625 0l0 -4.5q0 -0.609375 -0.265625 -0.875q-0.25 -0.265625 -0.859375 -0.265625q-0.78125 0 -1.1875 0.671875l0 4.96875l-1.875 0l0 -7.046875l1.765625 0zm9.808289 7.046875q-0.125 -0.25 -0.1875 -0.625q-0.671875 0.75 -1.765625 0.75q-1.046875 0 -1.734375 -0.59375q-0.671875 -0.59375 -0.671875 -1.515625q0 -1.109375 0.828125 -1.703125q0.84375 -0.609375 2.40625 -0.609375l0.859375 0l0 -0.40625q0 -0.484375 -0.25 -0.78125q-0.25 -0.296875 -0.78125 -0.296875q-0.484375 0 -0.75 0.234375q-0.265625 0.21875 -0.265625 0.625l-1.890625 0q0 -0.609375 0.375 -1.125q0.390625 -0.53125 1.078125 -0.828125q0.6875 -0.296875 1.546875 -0.296875q1.296875 0 2.0625 0.65625q0.765625 0.65625 0.765625 1.84375l0 3.046875q0.015625 1.0 0.28125 1.515625l0 0.109375l-1.90625 0zm-1.546875 -1.3125q0.40625 0 0.75 -0.171875q0.359375 -0.1875 0.53125 -0.5l0 -1.21875l-0.703125 0q-1.40625 0 -1.5 0.984375l0 0.109375q0 0.34375 0.234375 0.578125q0.25 0.21875 0.6875 0.21875zm6.8644104 -7.453125l0 1.71875l1.203125 0l0 1.390625l-1.203125 0l0 3.515625q0 0.390625 0.15625 0.5625q0.15625 0.15625 0.578125 0.15625q0.3125 0 0.546875 -0.046875l0 1.4375q-0.546875 0.15625 -1.140625 0.15625q-1.984375 0 -2.015625 -2.0l0 -3.78125l-1.03125 0l0 -1.390625l1.03125 0l0 -1.71875l1.875 0zm4.2378235 8.765625l-1.890625 0l0 -7.046875l1.890625 0l0 7.046875zm-2.0 -8.859375q0 -0.421875 0.28125 -0.6875q0.296875 -0.28125 0.78125 -0.28125q0.484375 0 0.765625 0.28125q0.28125 0.265625 0.28125 0.6875q0 0.421875 -0.296875 0.703125q-0.28125 0.265625 -0.765625 0.265625q-0.46875 0 -0.765625 -0.265625q-0.28125 -0.28125 -0.28125 -0.703125zm3.252533 5.28125q0 -1.0625 0.40625 -1.875q0.40625 -0.828125 1.15625 -1.265625q0.765625 -0.453125 1.765625 -0.453125q1.4375 0 2.328125 0.875q0.90625 0.875 1.015625 2.359375l0 0.484375q0 1.625 -0.90625 2.609375q-0.890625 0.96875 -2.421875 0.96875q-1.515625 0 -2.4375 -0.96875q-0.90625 -0.984375 -0.90625 -2.65625l0 -0.078125zm1.890625 0.125q0 1.0 0.375 1.53125q0.375 0.53125 1.078125 0.53125q0.6875 0 1.0625 -0.515625q0.390625 -0.53125 0.390625 -1.671875q0 -0.984375 -0.390625 -1.53125q-0.375 -0.546875 -1.078125 -0.546875q-0.6875 0 -1.0625 0.546875q-0.375 0.53125 -0.375 1.65625zm7.6767273 -3.59375l0.0625 0.8125q0.75 -0.9375 2.015625 -0.9375q1.125 0 1.671875 0.65625q0.546875 0.65625 0.5625 1.96875l0 4.546875l-1.890625 0l0 -4.5q0 -0.609375 -0.265625 -0.875q-0.25 -0.265625 -0.859375 -0.265625q-0.78125 0 -1.1875 0.671875l0 4.96875l-1.875 0l0 -7.046875l1.765625 0z" fill-rule="nonzero"/><path fill="#000000" fill-opacity="0.0" d="m223.53508 495.28043l173.35432 0l0 34.141754l-173.35432 0z" fill-rule="evenodd"/><path fill="#980000" d="m296.3178 519.71356q-0.171875 2.4375 -1.796875 3.84375q-1.625 1.40625 -4.296875 1.40625q-2.921875 0 -4.59375 -1.953125q-1.671875 -1.96875 -1.671875 -5.390625l0 -0.9375q0 -2.1875 0.765625 -3.84375q0.78125 -1.671875 2.203125 -2.5625q1.4375 -0.890625 3.34375 -0.890625q2.625 0 4.21875 1.40625q1.609375 1.40625 1.859375 3.953125l-3.125 0q-0.109375 -1.46875 -0.8125 -2.125q-0.703125 -0.671875 -2.140625 -0.671875q-1.5625 0 -2.34375 1.125q-0.78125 1.109375 -0.796875 3.46875l0 1.140625q0 2.46875 0.734375 3.609375q0.75 1.125 2.359375 1.125q1.453125 0 2.15625 -0.65625q0.71875 -0.671875 0.828125 -2.046875l3.109375 0zm14.517426 -2.1875q0 2.234375 -0.796875 3.921875q-0.796875 1.6875 -2.265625 2.609375q-1.46875 0.90625 -3.375 0.90625q-1.890625 0 -3.375 -0.90625q-1.46875 -0.90625 -2.28125 -2.578125q-0.8125 -1.6875 -0.828125 -3.875l0 -0.75q0 -2.234375 0.8125 -3.9375q0.8125 -1.703125 2.28125 -2.609375q1.46875 -0.921875 3.359375 -0.921875q1.90625 0 3.375 0.921875q1.46875 0.90625 2.28125 2.609375q0.8125 1.703125 0.8125 3.921875l0 0.6875zm-3.171875 -0.6875q0 -2.390625 -0.859375 -3.625q-0.84375 -1.234375 -2.421875 -1.234375q-1.578125 0 -2.4375 1.21875q-0.84375 1.21875 -0.859375 3.578125l0 0.75q0 2.3125 0.84375 3.59375q0.859375 1.28125 2.46875 1.28125q1.578125 0 2.421875 -1.234375q0.84375 -1.234375 0.84375 -3.59375l0 -0.734375zm11.053711 2.375l-2.484375 0l0 5.546875l-3.125 0l0 -15.15625l5.625 0q2.6875 0 4.140625 1.203125q1.46875 1.1875 1.46875 3.375q0 1.546875 -0.671875 2.59375q-0.671875 1.03125 -2.03125 1.640625l3.265625 6.203125l0 0.140625l-3.34375 0l-2.84375 -5.546875zm-2.484375 -2.53125l2.515625 0q1.171875 0 1.8125 -0.59375q0.65625 -0.609375 0.65625 -1.65625q0 -1.078125 -0.609375 -1.6875q-0.609375 -0.609375 -1.875 -0.609375l-2.5 0l0 4.546875zm19.611267 1.5l-6.0 0l0 4.0625l7.03125 0l0 2.515625l-10.15625 0l0 -15.15625l10.140625 0l0 2.53125l-7.015625 0l0 3.609375l6.0 0l0 2.4375z" fill-rule="nonzero"/><path fill="#000000" fill-opacity="0.0" d="m110.939415 219.80577l66.77166 0l0 34.14174l-66.77166 0z" fill-rule="evenodd"/><path fill="#980000" d="m133.09566 244.91077l2.046875 -10.78125l3.109375 0l-3.359375 15.15625l-3.140625 0l-2.46875 -10.140625l-2.4687424 10.140625l-3.140625 0l-3.375 -15.15625l3.125 0l2.046875 10.765625l2.5 -10.765625l2.6406174 0l2.484375 10.78125zm15.979828 -2.203125l-6.0 0l0 4.0625l7.03125 0l0 2.515625l-10.15625 0l0 -15.15625l10.140625 0l0 2.53125l-7.015625 0l0 3.609375l6.0 0l0 2.4375zm2.8720703 6.578125l0 -15.15625l5.3125 0q2.75 0 4.171875 1.0625q1.4375 1.046875 1.4375 3.09375q0 1.109375 -0.578125 1.953125q-0.578125 0.84375 -1.59375 1.25q1.171875 0.28125 1.84375 1.171875q0.671875 0.890625 0.671875 2.171875q0 2.1875 -1.40625 3.3125q-1.390625 1.125 -3.96875 1.140625l-5.890625 0zm3.125 -6.609375l0 4.09375l2.671875 0q1.109375 0 1.71875 -0.515625q0.625 -0.53125 0.625 -1.453125q0 -2.09375 -2.15625 -2.125l-2.859375 0zm0 -2.203125l2.3125 0q2.359375 -0.046875 2.359375 -1.875q0 -1.03125 -0.609375 -1.484375q-0.59375 -0.453125 -1.875 -0.453125l-2.1875 0l0 3.8125z" fill-rule="nonzero"/><path fill="#000000" fill-opacity="0.0" d="m381.66895 219.808l173.35431 0l0 34.141724l-173.35431 0z" fill-rule="evenodd"/><path fill="#980000" d="m426.181 243.74112l-2.484375 0l0 5.546875l-3.125 0l0 -15.15625l5.625 0q2.6875 0 4.140625 1.203125q1.46875 1.1875 1.46875 3.375q0 1.546875 -0.671875 2.59375q-0.671875 1.03125 -2.03125 1.640625l3.265625 6.203125l0 0.140625l-3.34375 0l-2.84375 -5.546875zm-2.484375 -2.53125l2.515625 0q1.171875 0 1.8125 -0.59375q0.65625 -0.609375 0.65625 -1.65625q0 -1.078125 -0.609375 -1.6875q-0.609375 -0.609375 -1.875 -0.609375l-2.5 0l0 4.546875zm19.611267 1.5l-6.0 0l0 4.0625l7.03125 0l0 2.515625l-10.15625 0l0 -15.15625l10.140625 0l0 2.53125l-7.015625 0l0 3.609375l6.0 0l0 2.4375zm14.856445 4.65625q-0.84375 1.015625 -2.390625 1.578125q-1.53125 0.546875 -3.40625 0.546875q-1.96875 0 -3.453125 -0.859375q-1.484375 -0.859375 -2.296875 -2.484375q-0.796875 -1.640625 -0.8125 -3.84375l0 -1.03125q0 -2.28125 0.765625 -3.9375q0.765625 -1.65625 2.203125 -2.53125q1.4375 -0.890625 3.375 -0.890625q2.703125 0 4.21875 1.296875q1.515625 1.28125 1.796875 3.734375l-3.03125 0q-0.203125 -1.296875 -0.921875 -1.890625q-0.71875 -0.609375 -1.96875 -0.609375q-1.59375 0 -2.421875 1.203125q-0.828125 1.1875 -0.84375 3.546875l0 0.96875q0 2.390625 0.90625 3.609375q0.90625 1.21875 2.65625 1.21875q1.765625 0 2.515625 -0.75l0 -2.625l-2.84375 0l0 -2.296875l5.953125 0l0 6.046875zm5.855835 1.921875l-3.125 0l0 -15.15625l3.125 0l0 15.15625zm10.764099 -3.984375q0 -0.875 -0.625 -1.34375q-0.625 -0.484375 -2.25 -1.0q-1.625 -0.53125 -2.578125 -1.046875q-2.578125 -1.390625 -2.578125 -3.75q0 -1.234375 0.6875 -2.1875q0.703125 -0.96875 2.0 -1.515625q1.296875 -0.546875 2.90625 -0.546875q1.625 0 2.890625 0.59375q1.265625 0.59375 1.96875 1.671875q0.703125 1.0625 0.703125 2.421875l-3.109375 0q0 -1.03125 -0.65625 -1.609375q-0.65625 -0.578125 -1.84375 -0.578125q-1.15625 0 -1.796875 0.484375q-0.625 0.484375 -0.625 1.265625q0 0.734375 0.734375 1.234375q0.75 0.5 2.203125 0.9375q2.671875 0.8125 3.875 2.0q1.21875 1.1875 1.21875 2.953125q0 1.96875 -1.484375 3.09375q-1.484375 1.109375 -4.0 1.109375q-1.75 0 -3.1875 -0.640625q-1.4375 -0.640625 -2.203125 -1.75q-0.75 -1.109375 -0.75 -2.578125l3.140625 0q0 2.5 3.0 2.5q1.109375 0 1.734375 -0.453125q0.625 -0.453125 0.625 -1.265625zm16.658264 -8.640625l-4.640625 0l0 12.625l-3.125 0l0 -12.625l-4.578125 0l0 -2.53125l12.34375 0l0 2.53125zm10.913452 6.046875l-6.0 0l0 4.0625l7.03125 0l0 2.515625l-10.15625 0l0 -15.15625l10.140625 0l0 2.53125l-7.015625 0l0 3.609375l6.0 0l0 2.4375zm8.481445 1.03125l-2.484375 0l0 5.546875l-3.125 0l0 -15.15625l5.625 0q2.6875305 0 4.1406555 1.203125q1.46875 1.1875 1.46875 3.375q0 1.546875 -0.671875 2.59375q-0.671875 1.03125 -2.03125 1.640625l3.265625 6.203125l0 0.140625l-3.34375 0l-2.8437805 -5.546875zm-2.484375 -2.53125l2.515625 0q1.1719055 0 1.8125305 -0.59375q0.65625 -0.609375 0.65625 -1.65625q0 -1.078125 -0.609375 -1.6875q-0.609375 -0.609375 -1.8750305 -0.609375l-2.5 0l0 4.546875z" fill-rule="nonzero"/><path fill="#000000" fill-opacity="0.0" d="m226.64531 281.88412l173.35432 0l0 34.141724l-173.35432 0z" fill-rule="evenodd"/><path fill="#980000" d="m299.77875 305.52286l3.015625 -9.984375l3.046875 0l-4.625 13.265625l-2.84375 0l-4.609375 -13.265625l3.03125 0l2.984375 9.984375zm10.869476 -9.984375l3.40625 9.625l3.390625 -9.625l3.59375 0l0 13.265625l-2.75 0l0 -3.625l0.28125 -6.265625l-3.578125 9.890625l-1.875 0l-3.578125 -9.875l0.28125 6.25l0 3.625l-2.734375 0l0 -13.265625l3.5625 0zm15.170563 5.46875l1.40625 0q1.0 0 1.484375 -0.5q0.484375 -0.5 0.484375 -1.328125q0 -0.8125 -0.484375 -1.25q-0.46875 -0.453125 -1.3125 -0.453125q-0.75 0 -1.265625 0.421875q-0.515625 0.40625 -0.515625 1.078125l-2.625 0q0 -1.046875 0.5625 -1.859375q0.5625 -0.828125 1.5625 -1.296875q1.0 -0.46875 2.21875 -0.46875q2.109375 0 3.296875 1.015625q1.1875 1.0 1.1875 2.765625q0 0.921875 -0.5625 1.6875q-0.546875 0.765625 -1.453125 1.171875q1.125 0.40625 1.671875 1.203125q0.5625 0.796875 0.5625 1.890625q0 1.765625 -1.296875 2.84375q-1.28125 1.0625 -3.40625 1.0625q-1.984375 0 -3.25 -1.046875q-1.265625 -1.046875 -1.265625 -2.78125l2.640625 0q0 0.75 0.5625 1.234375q0.5625 0.46875 1.375 0.46875q0.9375 0 1.46875 -0.5q0.53125 -0.5 0.53125 -1.3125q0 -1.984375 -2.1875 -1.984375l-1.390625 0l0 -2.0625z" fill-rule="nonzero"/><path fill="#000000" fill-opacity="0.0" d="m527.48816 266.54068l-0.9211426 0l0 65.480316l-73.787476 0" fill-rule="evenodd"/><path stroke="#980000" stroke-width="2.0" stroke-linejoin="round" stroke-linecap="butt" d="m527.48816 266.54068l-0.9211426 0l0 65.480316l-61.787476 0" fill-rule="evenodd"/><path fill="#980000" stroke="#980000" stroke-width="2.0" stroke-linecap="butt" d="m464.77954 328.71753l-9.076202 3.3034668l9.076202 3.3034668z" fill-rule="evenodd"/><path fill="#ff9900" d="m340.58267 51.682552l0 0c0 -3.8211327 3.0976562 -6.9187737 6.9187927 -6.9187737l104.808105 0c1.8349609 0 3.5947876 0.72893906 4.8923035 2.0264626c1.2975464 1.2975235 2.0264587 3.0573387 2.0264587 4.892311l0 27.674267c0 3.8211288 -3.0976257 6.91877 -6.918762 6.91877l-104.808105 0c-3.8211365 0 -6.9187927 -3.097641 -6.9187927 -6.91877z" fill-rule="evenodd"/><path fill="#ffffff" d="m387.61636 70.31969l0 -9.468754l2.921875 0q1.25 0 2.234375 0.5625q0.984375 0.5625 1.53125 1.59375q0.5625 1.0312538 0.5625 2.3593788l0 0.4375q0 1.3125 -0.546875 2.34375q-0.546875 1.03125 -1.53125 1.609375q-0.984375 0.5625 -2.234375 0.5625l-2.9375 0zm1.953125 -7.890629l0 6.328129l0.9375 0q1.15625 0 1.75 -0.75q0.609375 -0.75 0.625 -2.140625l0 -0.5q0 -1.4531288 -0.609375 -2.1875038q-0.59375 -0.75 -1.734375 -0.75l-0.96875 0zm14.411987 7.890629l-1.953125 0l-3.796875 -6.234375l0 6.234375l-1.953125 0l0 -9.468754l1.953125 0l3.8125 6.234379l0 -6.234379l1.9375 0l0 9.468754zm6.6291504 -2.484375q0 -0.5625 -0.390625 -0.84375q-0.390625 -0.296875 -1.40625 -0.625q-1.015625 -0.328125 -1.609375 -0.65625q-1.625 -0.875 -1.625 -2.3437538q0 -0.765625 0.4375 -1.359375q0.4375 -0.609375 1.25 -0.953125q0.8125 -0.34375 1.8125 -0.34375q1.015625 0 1.8125 0.375q0.796875 0.359375 1.234375 1.03125q0.4375 0.671875 0.4375 1.53125l-1.953125 0q0 -0.65625 -0.40625 -1.015625q-0.40625 -0.359375 -1.15625 -0.359375q-0.71875 0 -1.125 0.3125q-0.390625 0.296875 -0.390625 0.78125q0 0.46875 0.46875 0.7812538q0.46875 0.3125 1.375 0.578125q1.671875 0.5 2.421875 1.25q0.765625 0.734375 0.765625 1.84375q0 1.234375 -0.9375 1.9375q-0.921875 0.6875 -2.5 0.6875q-1.09375 0 -2.0 -0.390625q-0.890625 -0.40625 -1.359375 -1.09375q-0.46875 -0.703125 -0.46875 -1.625l1.953125 0q0 1.578125 1.875 1.578125q0.703125 0 1.09375 -0.28125q0.390625 -0.296875 0.390625 -0.796875z" fill-rule="nonzero"/></g></svg>